<?xml version="1.0"?>
<svg version="1.1" xmlns="http://www.w3.org/2000/svg" width="51px" height="51px" style="border: dashed 2px #aaa"><path fill="#" d="M20.80859375,29.21875l0.02734375,0.0546875q-0.013671875,0.013671875-0.0546875-0.0546875q0-0.02734375,0.02734375-0.02734375l0,0.02734375q0.02734375,0.02734375,0.02734375,0.109375q0,0.13671875-0.2666015625,0.3828125t-0.2939453125,0.314453125q-0.08203125,0.328125-0.205078125,0.615234375q-0.0546875,0.21875-0.1982421875,0.5263671875t-0.2939453125,0.4033203125q-0.068359375,0.041015625-0.21875,0.1845703125t-0.259765625,0.1982421875q-0.08203125,0.08203125-0.08203125,0.150390625q0,0.02734375,0.013671875,0.0888671875t0.013671875,0.1025390625q0,0.0546875-0.02734375,0.109375q-0.068359375,0.13671875-0.478515625,0.341796875q-0.109375,0.2734375-0.287109375,0.2734375l-0.08203125,0q-0.232421875,0.287109375-0.505859375,0.314453125q-0.123046875,0.013671875-0.287109375-0.095703125t-0.21875-0.109375q-0.013671875,0-0.041015625,0.013671875t-0.041015625,0.013671875q-0.041015625,0.013671875-0.1708984375,0.1298828125t-0.2392578125,0.1025390625q-0.21875-0.0546875-0.232421875-0.0546875q-0.0546875,0-0.13671875,0.08203125q-0.0546875,0.0546875-0.13671875,0.0546875l-0.08203125,0l-0.068359375,0q-0.02734375,0.02734375-0.095703125,0.08203125t-0.095703125,0.08203125q-0.259765625,0.259765625-0.451171875,0.259765625q-0.08203125,0-0.109375-0.02734375q-0.205078125-0.068359375-0.21875-0.068359375q-0.041015625,0-0.314453125,0.068359375q-0.0546875,0.02734375-0.13671875,0.02734375l-0.1640625,0l-0.08203125,0q-0.4375,0.109375-0.451171875,0.109375l-0.0546875,0q-0.095703125,0-0.205078125-0.0546875q-0.08203125,0.08203125-0.24609375,0.08203125q-0.041015625,0-0.369140625-0.08203125l-0.08203125,0l-0.1640625,0q-0.08203125,0-0.13671875-0.02734375l-0.177734375,0q-0.08203125,0-0.2666015625-0.013671875t-0.2666015625-0.013671875q-0.1640625,0-0.21875,0.02734375q-0.02734375,0.02734375-0.109375,0.02734375l-0.109375,0l-0.08203125,0q-0.109375,0.0546875-0.205078125,0.0546875q-0.041015625,0-0.08203125-0.08203125q-0.41015625,0.13671875-0.587890625,0.13671875q-0.24609375,0-0.396484375-0.109375q-0.2734375,0-0.4375-0.109375q-0.08203125,0.08203125-0.259765625,0.08203125q-0.123046875,0-0.24609375-0.08203125l0,0.2734375l0,0.13671875q0.123046875-0.08203125,0.19140625-0.08203125q0.0546875,0,0.109375,0.0546875t0.0546875,0.109375q0,0.150390625-0.109375,0.259765625q-0.1640625,0.19140625-0.1640625,0.328125l0,0.150390625q0.02734375,0.0546875,0.02734375,0.2734375l0,0.08203125q0,0.013671875-0.068359375,0.3076171875t-0.068359375,0.3896484375q0,0.068359375,0.02734375,0.068359375q0.13671875,0.02734375,0.13671875,0.13671875q0,0.150390625-0.109375,0.21875q-0.109375,0.109375-0.109375,0.1640625q0,0.013671875,0.013671875,0.068359375t0.013671875,0.08203125q0.013671875,0,0.095703125-0.0615234375t0.1572265625-0.1025390625t0.1298828125-0.041015625q0.08203125,0,0.08203125,0.123046875l0,0.0546875q-0.013671875,0.041015625-0.0478515625,0.0888671875t-0.095703125,0.095703125t-0.109375,0.0751953125t-0.1162109375,0.068359375t-0.095703125,0.0546875q-0.02734375,0.02734375-0.02734375,0.08203125q0,0.109375,0.068359375,0.4169921875t0.068359375,0.3486328125q0.02734375,0.08203125,0.068359375,0.2666015625t0.068359375,0.2666015625q0.068359375,0.1640625,0.109375,0.1640625l0.205078125,0q0.2734375,0,0.2734375,0.1640625l0,0.0546875q-0.013671875,0.0546875,0.2734375,0.095703125t0.6220703125,0.0546875t0.3623046875,0.02734375q0.123046875,0.013671875,0.2392578125-0.013671875t0.2666015625-0.095703125t0.21875-0.095703125q0.0546875-0.02734375,0.232421875-0.02734375q0.396484375,0,0.396484375,0.205078125l0,0.0546875q0,0.02734375-0.013671875,0.08203125t-0.013671875,0.08203125q0,0.109375,0.041015625,0.3828125t0.041015625,0.396484375q0,0.150390625-0.0546875,0.259765625q0,0.369140625-0.177734375,0.669921875q0,0.150390625,0.0546875,0.478515625q0.013671875,0.205078125-0.08203125,0.341796875t-0.2939453125,0.19140625t-0.3623046875,0.068359375t-0.3828125,0.013671875q-0.341796875,0-0.587890625-0.08203125l-0.1640625,0l-0.30078125,0l-0.095703125,0l-0.19140625,0l-0.08203125,0q-0.0546875,0.041015625-0.177734375,0.0546875t-0.19140625,0.0546875q-0.109375,0.0546875-0.21875,0.0546875q-0.041015625-0.013671875-0.109375-0.0546875t-0.109375-0.0546875q-0.177734375,0-0.232421875-0.02734375q-0.2734375,0.0546875-0.451171875,0.0546875q-0.109375,0.0546875-0.1640625,0.0546875q-0.013671875,0-0.0546875-0.013671875t-0.0546875-0.013671875q-0.21875,0.109375-0.341796875,0.109375q-0.068359375,0-0.1640625-0.0546875t-0.1640625-0.0546875q-0.08203125,0-0.2734375-0.0546875t-0.287109375-0.0546875q-0.0546875,0-0.1572265625-0.013671875t-0.1572265625-0.013671875t-0.19140625-0.068359375q-0.095703125,0.095703125-0.21875,0.095703125l-0.0546875,0q-0.0546875,0-0.1298828125-0.013671875t-0.1298828125-0.013671875l-0.1640625,0l-0.08203125,0q-0.095703125-0.013671875-0.287109375,0.0615234375t-0.2734375,0.0751953125l-0.08203125,0q-0.02734375-0.013671875-0.533203125-0.08203125q-0.109375,0.02734375-0.341796875,0.02734375l-0.13671875,0q-0.0546875-0.02734375-0.13671875-0.02734375q-0.041015625,0-0.068359375,0.0068359375l-0.08203125,0.0205078125l-0.109375,0.02734375q-0.013671875,0-0.041015625,0.013671875t-0.041015625,0.013671875q-0.041015625,0-0.1640625-0.02734375t-0.177734375-0.02734375l-0.0546875,0q-0.123046875,0.08203125-0.19140625,0.08203125q-0.041015625,0-0.123046875-0.013671875t-0.123046875-0.013671875l-0.068359375,0q-0.123046875,0.08203125-0.19140625,0.08203125q-0.041015625,0-0.1298828125-0.02734375t-0.1435546875-0.02734375q-0.041015625,0-0.123046875-0.02734375t-0.109375-0.02734375q-0.123046875,0.08203125-0.24609375,0.08203125q-0.287109375,0-0.533203125-0.08203125q-0.109375-0.02734375-0.1845703125-0.1640625t-0.1572265625-0.150390625q-0.13671875-0.041015625-0.13671875-0.13671875q0-0.13671875,0.259765625-0.396484375q0.02734375-0.08203125,0.02734375-0.21875l0-0.21875l0-0.177734375q0-0.341796875,0.0546875-0.560546875l0-0.08203125l0-0.19140625l0-0.08203125q0-0.328125,0.123046875-0.478515625t0.4375-0.19140625l0.109375,0q0.21875,0,0.328125,0.0546875l0.02734375,0q0.041015625,0,0.1025390625-0.02734375t0.1025390625-0.02734375q0.0546875,0,0.150390625-0.0478515625t0.150390625-0.0478515625q0.041015625,0,0.150390625,0.0546875q0.095703125-0.095703125,0.3076171875-0.1162109375t0.3076171875-0.1298828125q0.0546875-0.0546875,0.13671875-0.0546875q0.177734375,0,0.30078125,0.24609375q0-0.02734375,0.02734375-0.02734375q-0.0546875-0.0546875-0.0546875-0.1640625q0-0.1640625,0.02734375-0.24609375q-0.0546875-0.02734375-0.0546875-0.123046875t0.177734375-0.19140625q0.08203125-0.205078125,0.08203125-0.478515625l0-0.1640625q-0.24609375,0.1640625-0.341796875,0.1640625q-0.068359375,0-0.109375-0.109375l-0.02734375-0.0546875q0-0.0546875,0.041015625-0.123046875t0.0888671875-0.1162109375t0.1162109375-0.109375t0.08203125-0.0751953125q0.150390625-0.109375,0.150390625-0.3828125q0-0.13671875-0.041015625-0.4169921875t-0.041015625-0.4033203125q0-0.02734375,0.013671875-0.08203125t0.013671875-0.08203125q0-0.013671875-0.013671875-0.13671875t-0.013671875-0.177734375q0-0.24609375,0.0546875-0.41015625q-0.02734375-0.08203125-0.02734375-0.341796875l0-0.109375q-0.02734375-0.08203125-0.02734375-0.287109375q0-0.1640625,0.0546875-0.4580078125t0.0546875-0.3486328125l-0.109375,0q-0.341796875,0-0.341796875-0.13671875q0-0.068359375,0.109375-0.109375q0.02734375-0.013671875,0.1298828125-0.0615234375t0.150390625-0.0888671875t0.0615234375-0.109375l0-0.13671875l0-0.0546875q-0.109375-0.19140625-0.109375-0.84765625l0-0.533203125q0-0.02734375-0.013671875-0.08203125t-0.013671875-0.08203125q0-0.560546875,0.21875-0.943359375q-0.13671875-0.314453125-0.13671875-0.875q0-0.35546875,0.08203125-0.560546875l0-0.19140625l0-0.423828125q-0.08203125-0.1640625-0.08203125-0.478515625q-0.0546875-0.13671875-0.0546875-0.41015625l0-0.396484375l0-0.1640625q-0.123046875-0.615234375-0.177734375-0.9296875q-0.041015625-0.109375-0.1640625-0.109375q-0.150390625,0-0.314453125,0.0546875l-0.0546875,0q-0.328125,0-0.328125-0.13671875q0-0.095703125,0.0546875-0.123046875q0-0.02734375-0.0546875-0.02734375q-0.095703125,0-0.396484375,0.150390625q-0.08203125,0-0.1845703125-0.0751953125t-0.1162109375-0.0751953125q-0.068359375,0-0.2119140625,0.02734375t-0.2119140625,0.02734375l-0.08203125,0q-0.041015625-0.013671875-0.1708984375,0.013671875t-0.1708984375,0.02734375q-0.068359375,0-0.1640625-0.095703125q-0.259765625-0.068359375-0.259765625-0.916015625q0-0.560546875,0.095703125-0.751953125q-0.109375,0.0546875-0.205078125,0.0546875q-0.1640625,0-0.1640625-0.095703125l0.0546875-0.109375q0.0546875-0.068359375,0.1708984375-0.205078125t0.1708984375-0.205078125l0-0.287109375l0-0.08203125q0-0.0546875,0.0205078125-0.1025390625t0.0615234375-0.08203125t0.068359375-0.0546875t0.095703125-0.0546875t0.08203125-0.0478515625q0.0546875-0.0546875,0.287109375-0.0546875q0.0546875,0,0.13671875-0.013671875t0.13671875-0.013671875l0.0546875,0q0.041015625,0,0.095703125,0.02734375t0.08203125,0.02734375q0.0546875,0,0.109375-0.0546875q0.109375-0.0546875,0.19140625-0.0546875t0.13671875,0.02734375q0.0546875-0.02734375,0.205078125-0.02734375l0.21875,0l0.109375,0l0.0546875,0q0.0546875,0,0.1982421875,0.02734375t0.1982421875,0.02734375l0.0546875,0q0.08203125-0.08203125,0.19140625-0.08203125q0.095703125,0,0.123046875,0.02734375q0.041015625,0.013671875,0.1640625,0.0205078125t0.1640625,0.0341796875l0.08203125,0q0.068359375,0,0.2119140625,0.013671875t0.1845703125,0.013671875q0.4375,0.0546875,0.615234375,0.0546875q0.095703125,0.013671875,0.3349609375-0.0478515625t0.3349609375-0.0615234375q0.205078125,0,0.314453125,0.109375q0.0546875-0.02734375,0.13671875-0.02734375q0.109375,0,0.13671875,0.02734375q0.109375-0.0546875,0.287109375-0.0546875q0.0546875,0.013671875,0.259765625-0.0205078125t0.2734375-0.0341796875q0.109375,0,0.1640625,0.0546875q0.943359375-0.08203125,0.984375-0.08203125l0.1640625,0q0.109375-0.0546875,0.19140625-0.0546875q0.095703125,0,0.3349609375,0.0751953125t0.3623046875,0.0615234375q0.02734375,0,0.1025390625-0.013671875t0.1025390625-0.013671875q0.08203125,0,0.24609375,0.013671875t0.232421875,0.013671875q0.13671875,0,0.21875-0.02734375q0.02734375,0,0.2119140625-0.013671875t0.2119140625-0.013671875q0.287109375,0.095703125,0.30078125,0.109375q0.0546875-0.02734375,0.205078125-0.02734375l0.08203125,0l0.0546875,0q0.041015625,0,0.1162109375-0.02734375t0.1298828125-0.02734375q0.095703125,0,0.287109375,0.013671875t0.2734375,0.013671875q0.150390625,0,0.369140625-0.0546875q0.0546875-0.0546875,0.2734375-0.0546875q0.314453125,0,0.533203125,0.0546875q0.177734375,0,0.451171875,0.0546875q0.041015625-0.013671875,0.1298828125-0.0205078125t0.1708984375-0.0341796875q0.1640625-0.0546875,0.232421875-0.0546875l0.13671875,0.0546875l-0.02734375,0.0546875l0.0546875,0l0.08203125,0l0.08203125,0q0.123046875,0,0.150390625,0.02734375q0.4921875,0,0.833984375,0.150390625q0.068359375,0.02734375,0.259765625,0.068359375t0.3349609375,0.0888671875t0.1845703125,0.1162109375q0.109375-0.0546875,0.205078125-0.0546875q0.3828125,0,0.806640625,0.423828125q0.068359375,0.02734375,0.314453125,0.21875t0.41015625,0.19140625l0.095703125,0l0.109375,0q0.21875,0,0.21875,0.150390625l0,0.08203125q-0.02734375,0.0546875-0.02734375,0.109375q0,0.013671875,0.013671875,0.0205078125t0.0478515625,0.02734375t0.0751953125,0.0615234375q0.041015625,0.02734375,0.1572265625,0.1435546875t0.1845703125,0.1435546875l0.02734375,0q0.0546875,0,0.1845703125-0.08203125t0.1845703125-0.068359375q0.13671875,0,0.13671875,0.123046875q0,0.095703125-0.259765625,0.35546875q0.02734375,0.02734375,0.0615234375,0.123046875t0.0615234375,0.13671875q0.13671875,0.2734375,0.1640625,0.41015625q0.35546875,0.724609375,0.423828125,1.0390625q0.0546875-0.02734375,0.177734375-0.095703125t0.177734375-0.095703125q0.02734375-0.02734375,0.08203125-0.02734375q0.150390625,0,0.150390625,0.109375l0,0.0546875l0-0.02734375l-0.123046875,0.13671875l0.068359375,0.205078125q0,0.0546875-0.150390625,0.1640625q-0.013671875,0.013671875-0.0751953125,0.0478515625t-0.1162109375,0.0751953125t-0.0546875,0.068359375q0.02734375,0.109375,0.02734375,0.341796875q0,0.423828125,0.08203125,0.587890625q0.0546875,0.1640625,0.0546875,0.24609375q0.08203125,0,0.109375,0.0546875q0,0.013671875,0.041015625,0.1025390625t0.041015625,0.1025390625l0,0.08203125q0,0.08203125-0.068359375,0.2255859375t-0.068359375,0.2255859375l0,0.02734375q0.068359375-0.068359375,0.13671875-0.068359375q0.0546875,0,0.123046875,0.068359375z M18.83984375,29.30078125q0.02734375-0.013671875,0.1640625-0.0751953125t0.2666015625-0.123046875t0.2666015625-0.13671875t0.21875-0.150390625t0.068359375-0.1298828125q-0.46484375,0.328125-0.984375,0.615234375z M19.7421875,27.701171875l0-0.08203125q-1.326171875,0.916015625-3.9853515625,2.76171875t-3.9990234375,2.775390625q0.150390625,0.013671875,0.3486328125-0.0751953125t0.4169921875-0.2392578125t0.30078125-0.19140625q0.205078125-0.109375,0.5810546875-0.3212890625t0.5673828125-0.3212890625q2.146484375-1.298828125,2.748046875-1.66796875q0.287109375-0.177734375,0.7861328125-0.4921875t0.9091796875-0.5810546875t0.765625-0.4990234375q0.560546875-0.287109375,0.615234375-0.478515625q-0.02734375-0.095703125-0.0341796875-0.314453125t-0.0205078125-0.2734375z M18.224609375,30.107421875l-0.08203125,0.0546875q0.02734375-0.02734375,0.08203125-0.0546875q-0.068359375,0.041015625-0.19140625,0.1162109375t-0.19140625,0.1162109375l0.123046875-0.0615234375t0.1435546875-0.0888671875t0.1162109375-0.08203125z M9.59765625,33.2109375q0.013671875-0.013671875,0.041015625-0.02734375t0.02734375-0.02734375t-0.013671875-0.041015625t-0.013671875-0.041015625q0-0.02734375,0.0546875-0.08203125l0.0546875-0.02734375q0.068359375,0,0.1708984375,0.0888671875t0.1298828125,0.1025390625l0.13671875,0q0.150390625,0,0.369140625-0.0546875q0.669921875-0.150390625,1.681640625-0.751953125q0.998046875-0.546875,2.666015625-1.681640625q0.2734375-0.205078125,0.5810546875-0.4169921875t0.6904296875-0.4716796875t0.6015625-0.423828125q1.01171875-0.724609375,1.421875-1.0390625q0.109375-0.068359375,0.451171875-0.2939453125t0.697265625-0.478515625t0.341796875-0.2939453125q-1.927734375,1.134765625-2.638671875,1.572265625q-0.8203125,0.478515625-1.55859375,0.95703125q-0.095703125,0.041015625-0.396484375,0.21875q-0.24609375,0.1640625-0.314453125,0.24609375q0,0.013671875,0.013671875,0.0615234375t0.013671875,0.0615234375q0,0.232421875-0.24609375,0.3828125q-0.0546875,0.041015625-0.1572265625,0.1572265625t-0.1982421875,0.19140625t-0.205078125,0.1025390625q-0.013671875,0-0.0546875,0.013671875t-0.0546875,0.013671875q-0.30078125,0-0.396484375-0.19140625q-0.02734375-0.02734375-0.0546875-0.02734375l-0.109375,0l-0.0546875,0q-0.041015625,0.02734375-0.0615234375,0.095703125t-0.0478515625,0.095703125q-0.0546875,0.068359375-0.1845703125,0.095703125t-0.1572265625,0.041015625q-0.041015625,0.013671875-0.177734375,0.0751953125t-0.24609375,0.0888671875t-0.19140625,0.013671875q-0.0546875,0-0.205078125-0.0478515625t-0.21875-0.0478515625q-0.109375,0-0.1640625,0.0546875q-1.080078125,0.765625-2.3515625,1.736328125l0.328125,0z M4.51171875,36.41015625q0.259765625-0.19140625,0.806640625-0.6015625t0.8203125-0.6015625q-0.068359375,0.041015625-0.2734375,0.1435546875t-0.3212890625,0.1572265625t-0.2939453125,0.123046875t-0.341796875,0.1025390625t-0.314453125,0.0341796875q-0.13671875,0-0.13671875,0.30078125q0,0.177734375,0.0546875,0.341796875z M9.43359375,23.271484375q-0.123046875,0.041015625-0.2802734375,0.150390625t-0.341796875,0.2666015625t-0.2392578125,0.1982421875q0.068359375-0.041015625,0.4375-0.2666015625t0.587890625-0.3212890625q0-0.02734375-0.0546875-0.02734375l-0.08203125,0l-0.02734375,0z M8.28515625,23.640625l-0.24609375,0.1640625q-0.02734375,0,0.30078125-0.19140625q-0.02734375,0-0.0546875,0.02734375q-0.68359375,0.41015625-1.9208984375,1.2373046875t-1.7431640625,1.1416015625q-0.21875,0.109375-0.21875,0.19140625l0.013671875,0.068359375q0.013671875,0.068359375,0.013671875,0.13671875q0.0546875,0.13671875,0.0546875,0.505859375q0.02734375,0.109375,0.02734375,0.3828125l0,0.423828125q0.9296875-0.724609375,2.7958984375-2.1806640625t2.7958984375-2.1806640625q-0.095703125-0.013671875-0.2529296875,0.0615234375t-0.369140625,0.21875t-0.2392578125,0.1572265625q-0.505859375,0.30078125-1.23046875,0.79296875q-0.369140625,0.232421875-0.7861328125,0.5126953125t-0.9296875,0.62890625t-0.7861328125,0.5400390625q-0.013671875,0.013671875-0.1640625,0.123046875l-0.2255859375,0.1640625t-0.205078125,0.109375t-0.2119140625,0.041015625q-0.1640625,0-0.1640625-0.08203125q0-0.041015625,0.0546875-0.1025390625t0.1162109375-0.109375t0.1298828125-0.1025390625l0.0546875-0.041015625q0.765625-0.587890625,2.2216796875-1.6474609375t1.9619140625-1.4423828125q-0.109375,0.02734375-0.24609375,0.095703125t-0.3212890625,0.1982421875t-0.2255859375,0.1572265625z M17.896484375,24.365234375l-0.314453125,0.177734375q0,0.013671875,0.08203125-0.02734375t0.1572265625-0.0888671875t0.0751953125-0.0615234375q-1.326171875,0.73828125-2.939453125,1.818359375q0.21875,0.24609375,0.3828125,0.587890625q0.287109375-0.4375,0.7041015625-0.806640625t1.0869140625-0.861328125t0.875-0.65625q-0.013671875-0.013671875-0.0546875-0.041015625t-0.0546875-0.041015625z M18.306640625,24.65234375q-0.068359375-0.02734375-0.177734375,0.02734375t-0.259765625,0.1708984375t-0.2666015625,0.2119140625t-0.2529296875,0.21875t-0.1640625,0.150390625q0.84765625-0.51953125,1.244140625-0.669921875q-0.013671875-0.02734375-0.068359375-0.068359375z M19.017578125,25.322265625q0.013671875,0.013671875-0.41015625,0.328125t-0.8955078125,0.6630859375t-0.5263671875,0.4033203125q-0.1640625,0.109375-0.3349609375,0.24609375t-0.3759765625,0.3076171875t-0.314453125,0.2666015625q-0.287109375,0.19140625-0.478515625,0.3828125l0,0.150390625l0,0.0546875q1.353515625-0.79296875,1.736328125-1.0390625q0.560546875-0.35546875,1.0390625-0.642578125q0.642578125-0.533203125,0.806640625-0.533203125q-0.02734375-0.095703125-0.123046875-0.2939453125t-0.123046875-0.2939453125z M15.626953125,27.591796875q-0.013671875-0.02734375,0.2939453125-0.2666015625t0.6904296875-0.5263671875t0.41015625-0.30078125q0.2734375-0.205078125,0.8408203125-0.6357421875t0.8408203125-0.6494140625q-0.1640625,0.095703125-2.32421875,1.33984375q-0.916015625,0.46484375-0.888671875,0.560546875q0.13671875,0.177734375,0.13671875,0.478515625z M17.814453125,25.376953125q0.478515625-0.2734375,0.546875-0.314453125q-0.123046875,0.0546875-0.546875,0.314453125z M15.544921875,28.876953125q0.02734375-0.0546875,0.177734375-0.177734375t0.35546875-0.2734375t0.24609375-0.19140625q0.90234375-0.669921875,1.23046875-0.9296875q-0.62890625,0.41015625-1.50390625,0.9296875q-0.24609375,0.13671875-0.3349609375,0.24609375t-0.1708984375,0.396484375z M14.724609375,25.91015625q0.205078125-0.150390625,0.560546875-0.451171875q-0.259765625,0.19140625-0.669921875,0.369140625q0.02734375,0,0.109375,0.08203125z M14.369140625,25.595703125l0.02734375-0.0546875q-0.02734375,0-0.02734375,0.0546875q0.13671875-0.259765625,0.3896484375-0.51953125t0.6015625-0.5537109375t0.4853515625-0.4306640625q-0.79296875,0.57421875-2.064453125,1.33984375q0.013671875,0.02734375,0.13671875,0.0615234375t0.2734375,0.0615234375t0.177734375,0.041015625z M12.98828125,25.8828125q-0.08203125-0.013671875-0.259765625,0.0615234375t-0.2734375,0.0751953125l-0.0546875,0q-0.19140625,0-0.19140625-0.1640625q-0.0546875-0.02734375-0.13671875-0.02734375l-0.177734375,0q-0.328125,0-0.46484375-0.0546875q-0.041015625-0.02734375-0.1845703125-0.0751953125t-0.1845703125-0.0751953125q-0.02734375,0-0.0888671875,0.013671875t-0.1025390625,0.013671875q-0.095703125,0-0.123046875-0.02734375l-0.0546875,0q-0.0546875,0-0.1640625,0.013671875t-0.1640625,0.013671875q-0.123046875,0-0.177734375-0.02734375q-0.232421875,0.150390625-0.328125,0.150390625l-0.13671875,0q-0.068359375,0-0.19140625-0.013671875t-0.150390625-0.013671875q-0.123046875,0-0.19140625,0.1640625q0,0.041015625-0.013671875,0.123046875t-0.013671875,0.123046875q0,0.0546875,0.013671875,0.150390625t0.013671875,0.13671875q0.02734375,0,0.13671875-0.02734375t0.1640625-0.02734375q0.205078125,0,0.205078125,0.13671875q-0.02734375,0.02734375-0.02734375,0.0546875q-0.013671875,0.0546875-0.1025390625,0.123046875t-0.2119140625,0.123046875t-0.13671875,0.068359375l0,0.30078125q0,0.396484375,0.0546875,0.396484375q0.08203125,0.02734375,0.08203125,0.109375q0,0.0546875-0.041015625,0.19140625t-0.041015625,0.205078125l0,0.0546875q0.0546875,0.109375,0.0546875,0.478515625q0,0.328125-0.02734375,0.46484375q0.013671875,0.095703125-0.0205078125,0.3896484375t-0.0341796875,0.3759765625q0,0.1640625,0.0546875,0.19140625q0.08203125,0.02734375,0.08203125,0.109375q0,0.150390625-0.1640625,0.232421875q-0.0546875,0.0546875-0.0546875,0.19140625l0,0.13671875l0,0.0546875q0,0.0546875,0.1640625,0.0546875q0.369140625,0,0.697265625-0.109375q0.1640625-0.0546875,0.341796875-0.0546875q0.1640625,0,0.21875,0.0546875q0.1640625-0.0546875,0.341796875-0.0546875q0.19140625,0,0.24609375,0.0546875q0.02734375,0,0.109375-0.013671875t0.123046875-0.013671875q0.19140625,0,0.35546875,0.0546875l0.0546875,0.02734375q0.041015625,0,0.1025390625-0.02734375t0.1025390625-0.02734375l0.0546875,0q0.08203125-0.013671875,0.2529296875-0.02734375t0.3076171875-0.041015625t0.21875-0.095703125q0.08203125-0.08203125,0.1640625-0.08203125q0.0546875,0,0.1708984375,0.041015625t0.1708984375,0.041015625q0.02734375,0,0.13671875-0.0546875q0.068359375-0.041015625,0.2119140625-0.109375t0.24609375-0.1435546875t0.1572265625-0.1708984375q0.068359375-0.123046875,0.2734375-0.3349609375t0.259765625-0.4169921875q0.068359375-0.341796875,0.1640625-0.533203125l0-0.0546875q0-0.041015625-0.02734375-0.1025390625t-0.02734375-0.1025390625q0-0.0546875,0.0546875-0.1640625q0.02734375-0.041015625,0.259765625-0.2734375q0-0.02734375-0.013671875-0.109375t-0.013671875-0.123046875q-0.02734375-0.0546875-0.0546875-0.232421875t-0.0546875-0.24609375q-0.068359375-0.13671875-0.177734375-0.41015625q-0.041015625-0.08203125-0.150390625-0.2255859375t-0.150390625-0.2255859375q-0.02734375,0.013671875-0.1162109375,0.08203125t-0.1708984375,0.109375t-0.13671875,0.02734375q-0.109375,0-0.109375-0.109375q0-0.0546875,0.0546875-0.109375q0.013671875-0.041015625,0.2734375-0.21875q-0.259765625-0.259765625-1.2578125-0.423828125z M8.654296875,33.279296875l0.35546875-0.259765625l-0.35546875,0.259765625q0.4921875-0.341796875,1.3740234375-0.998046875t1.0869140625-0.806640625q-0.08203125-0.013671875-0.24609375,0.0888671875t-0.35546875,0.259765625t-0.232421875,0.1845703125q-0.1640625,0.095703125-0.3486328125,0.2119140625t-0.396484375,0.259765625t-0.3212890625,0.2119140625q-1.025390625,0.669921875-2.37890625,1.44921875q-1.421875,0.875-2.05078125,1.06640625q-0.02734375,0-0.068359375,0.0068359375t-0.0615234375,0.0068359375t-0.0478515625,0.0068359375t-0.041015625,0.0205078125t-0.02734375,0.0478515625t-0.02734375,0.0751953125q0,0.13671875,0.1640625,0.13671875q0.095703125,0,0.341796875-0.08203125q0.314453125-0.109375,0.6630859375-0.2734375t0.5947265625-0.30078125t0.642578125-0.3896484375t0.5673828125-0.369140625t0.615234375-0.4306640625t0.5537109375-0.3828125z M8.873046875,31.515625l-0.1640625,0.13671875q0,0.013671875,0.0478515625-0.013671875t0.0888671875-0.068359375t0.02734375-0.0546875q-0.41015625,0.314453125-1.3193359375,0.9091796875t-1.572265625,1.1142578125t-1.1416015625,1.107421875q0.396484375-0.30078125,0.861328125-0.615234375t0.8271484375-0.533203125t0.95703125-0.5400390625t0.875-0.46484375t0.9775390625-0.4990234375t0.888671875-0.451171875q-0.205078125-0.068359375-0.287109375-0.068359375q-0.095703125,0.068359375-0.21875,0.068359375q-0.0546875-0.02734375-0.123046875-0.02734375q-0.02734375,0-0.109375,0.02734375q-0.02734375,0-0.13671875,0.013671875t-0.1640625,0.013671875q-0.150390625,0-0.314453125-0.0546875z M9.16015625,32.404296875q-0.068359375,0.041015625-0.150390625,0.08203125l-0.109375,0.0546875t-0.02734375,0.02734375q0.123046875-0.0546875,0.287109375-0.1640625q-2.98046875,1.572265625-4.060546875,2.37890625q0.41015625-0.177734375,0.8134765625-0.3896484375t0.8818359375-0.505859375t0.7451171875-0.451171875t0.861328125-0.546875t0.7587890625-0.4853515625z M8.599609375,27.33203125q0-0.013671875-0.013671875-0.041015625t-0.013671875-0.041015625q-0.287109375,0.1640625-1.2578125,0.79296875q0.02734375-0.02734375,0.1982421875-0.123046875t0.423828125-0.1982421875t0.4033203125-0.1025390625q0.205078125,0,0.205078125,0.1640625q0,0.013671875-0.013671875,0.041015625t-0.013671875,0.041015625q0.109375-0.068359375,0.109375-0.24609375q0-0.041015625-0.013671875-0.1435546875t-0.013671875-0.1435546875z M12.7421875,24.474609375q-0.341796875,0.21875-0.341796875,0.259765625q0.123046875-0.068359375,0.341796875-0.259765625q-0.177734375,0.095703125-0.5263671875,0.314453125t-0.5126953125,0.314453125l0.109375,0.0546875q0.02734375,0,0.08203125-0.041015625t0.095703125-0.0546875l0.0546875,0q0.041015625,0,0.1162109375,0.0205078125t0.1025390625,0.0205078125l0.0546875,0l0-0.068359375q0-0.08203125,0.0546875-0.1708984375t0.109375-0.1435546875t0.150390625-0.1435546875t0.109375-0.1025390625z M8.544921875,26.333984375l0-0.123046875q-0.478515625,0.533203125-1.599609375,1.490234375q0.423828125-0.287109375,1.3671875-0.833984375q0.259765625-0.150390625,0.259765625-0.314453125q0-0.013671875-0.013671875-0.08203125t-0.013671875-0.13671875z M8.1484375,27.919921875q-0.095703125,0.02734375-0.177734375,0.0615234375t-0.109375,0.0615234375l-0.02734375,0.02734375l0.02734375,0q0.095703125,0,0.287109375-0.150390625q-0.287109375,0.095703125-1.33984375,0.7109375q-0.19140625,0.109375-0.5400390625,0.3349609375t-0.5263671875,0.3349609375q-0.041015625,0.02734375-0.3349609375,0.205078125t-0.5400390625,0.3486328125t-0.24609375,0.2255859375q0.369140625-0.24609375,1.6474609375-0.943359375t1.8798828125-1.216796875z M4.56640625,29.57421875l0.02734375-0.02734375z M4.59375,30.859375l0,0.068359375q2.92578125-2.091796875,3.6640625-2.611328125q-0.505859375,0.2734375-2.119140625,1.2578125q-0.21875,0.123046875-0.5947265625,0.3759765625t-0.4716796875,0.3212890625q-0.041015625,0.02734375-0.123046875,0.0751953125t-0.123046875,0.0751953125t-0.095703125,0.08203125t-0.08203125,0.109375q0,0.13671875-0.0546875,0.24609375z M8.654296875,28.34375q-0.35546875,0.2734375-1.107421875,0.806640625t-1.107421875,0.79296875q0.779296875-0.478515625,1.3671875-0.79296875q0.095703125-0.0546875,0.21875-0.123046875t0.2802734375-0.1572265625t0.2392578125-0.1298828125q0.109375-0.068359375,0.109375-0.177734375l0-0.13671875l0-0.08203125z M12.9609375,25.185546875q0.341796875-0.2734375,1.0458984375-0.84765625t1.0595703125-0.861328125q-0.423828125,0.232421875-1.1552734375,0.833984375t-1.0869140625,0.8203125q0.08203125,0,0.13671875,0.0546875z M13.603515625,24.201171875l0.150390625-0.109375q-0.205078125,0.13671875-0.205078125,0.1640625q0-0.02734375,0.0546875-0.0546875q0.123046875-0.08203125,0.46484375-0.3486328125t0.546875-0.4033203125q-0.13671875-0.013671875-0.341796875,0.1162109375t-0.478515625,0.3759765625t-0.30078125,0.259765625q-0.4921875,0.3828125-0.724609375,0.615234375q0.451171875-0.2734375,0.833984375-0.615234375z M8.28515625,25.74609375l-0.328125,0.1640625q0,0.013671875,0.08203125-0.0205078125t0.1640625-0.08203125t0.08203125-0.0615234375q-0.8203125,0.423828125-2.54296875,1.53125q-0.041015625,0.02734375-0.724609375,0.478515625q-0.150390625,0.08203125-0.451171875,0.314453125q0,0.02734375,0.013671875,0.0888671875t0.013671875,0.1025390625q0.0546875,0.328125,0.0546875,0.533203125q0,0.287109375-0.0546875,0.423828125q1.216796875-0.90234375,2.625-2.1328125q1.0390625-0.916015625,1.326171875-1.28515625q-0.02734375,0-0.0888671875,0.013671875t-0.0888671875,0.013671875q-0.0546875,0-0.08203125-0.08203125z M4.51171875,32.294921875l0.08203125-0.0546875l-0.08203125,0.0546875q0.328125-0.259765625,0.95703125-0.7314453125t1.025390625-0.779296875t0.9091796875-0.7587890625t0.9091796875-0.875q-0.68359375,0.3828125-2.48828125,1.462890625q-0.21875,0.109375-0.615234375,0.3486328125t-0.615234375,0.3486328125q-0.13671875,0.068359375-0.13671875,0.396484375q0,0.314453125,0.0546875,0.587890625z M8.654296875,29.19140625l-0.13671875,0.1640625l0.13671875-0.1640625q-0.259765625,0.341796875-0.6494140625,0.7041015625t-0.6767578125,0.587890625t-0.806640625,0.615234375t-0.724609375,0.5537109375q0.177734375-0.109375,0.8818359375-0.5126953125t1.0732421875-0.6357421875q0.1640625-0.08203125,0.4443359375-0.24609375t0.3486328125-0.205078125q0.109375-0.0546875,0.109375-0.861328125z M8.517578125,30.927734375q-0.642578125,0.478515625-1.9208984375,1.435546875t-1.9208984375,1.435546875q0.861328125-0.232421875,2.009765625-1.107421875q0.46484375-0.35546875,1.544921875-1.09375q0.02734375-0.02734375,0.1298828125-0.0751953125t0.1572265625-0.1025390625t0.0546875-0.109375q-0.02734375-0.02734375-0.02734375-0.0546875q-0.02734375-0.0546875-0.02734375-0.1640625l0-0.1640625z M5.181640625,33.921875q-0.259765625,0.13671875-0.259765625,0.1640625q0.0546875,0,0.259765625-0.1640625q-0.02734375,0.013671875-0.1845703125,0.0546875t-0.3076171875,0.08203125t-0.150390625,0.0546875q-0.0546875,0.1640625-0.0546875,0.341796875q0,0.13671875,0.02734375,0.19140625q0.1640625-0.2734375,0.669921875-0.724609375z M8.544921875,33.744140625q-0.505859375,0.369140625-1.53125,1.134765625t-1.53125,1.134765625q0.451171875-0.287109375,2.05078125-1.2578125q0.13671875-0.08203125,0.4169921875-0.2529296875t0.4169921875-0.2529296875q0.177734375-0.109375,0.177734375-0.21875l0-0.1640625l0-0.123046875z M11.40234375,33.1015625l0.02734375-0.02734375z M19.509765625,26.498046875q-0.041015625-0.041015625-0.0751953125-0.1640625t-0.0615234375-0.150390625q-0.123046875,0.21875-0.3349609375,0.41015625t-0.5947265625,0.4443359375t-0.4375,0.2939453125q-1.900390625,1.353515625-2.515625,1.99609375q1.708984375-0.998046875,1.736328125-1.01171875q0.341796875-0.21875,0.998046875-0.6083984375t0.90234375-0.5400390625q0.02734375-0.013671875,0.177734375-0.08203125t0.232421875-0.13671875t0.068359375-0.150390625l-0.02734375-0.123046875q-0.041015625-0.109375-0.068359375-0.177734375z M16.884765625,23.6953125l-0.02734375,0l0.02734375,0l-0.02734375,0q-0.02734375,0-0.08203125-0.013671875t-0.08203125-0.013671875q-0.068359375,0-0.095703125,0.0546875q-0.068359375,0.068359375-0.19140625,0.1982421875t-0.19140625,0.1982421875q-0.41015625,0.41015625-1.3125,1.2578125q0.24609375-0.123046875,0.6904296875-0.396484375t0.5400390625-0.328125q0.109375-0.068359375,0.3486328125-0.2255859375t0.3486328125-0.2255859375q0.3828125-0.19140625,0.423828125-0.19140625q0.08203125,0,0.08203125,0.08203125l0,0.0546875q-0.013671875,0.068359375-0.095703125,0.150390625t-0.232421875,0.177734375l-0.150390625,0.095703125q-0.08203125,0.068359375-0.2529296875,0.19140625t-0.2529296875,0.19140625q0.08203125-0.0546875,0.5537109375-0.328125t0.7314453125-0.423828125q-0.2734375-0.24609375-0.751953125-0.505859375z M15.736328125,23.4765625l-0.02734375,0l0.02734375,0q-0.041015625,0-0.0888671875-0.013671875t-0.0751953125-0.013671875t-0.0546875,0.02734375q-0.0546875,0.0546875-0.259765625,0.19140625q-0.123046875,0.109375-0.3896484375,0.3212890625t-0.3896484375,0.3212890625q-0.205078125,0.1640625-0.5947265625,0.46484375t-0.5810546875,0.46484375q0.041015625,0,0.0888671875,0.013671875t0.0751953125,0.013671875q0.0546875,0,0.08203125-0.02734375q0.08203125-0.041015625,0.287109375-0.177734375q0.109375-0.068359375,0.3349609375-0.205078125t0.3349609375-0.205078125q1.134765625-0.724609375,1.599609375-1.06640625q-0.02734375,0-0.1572265625-0.0546875t-0.2119140625-0.0546875z M10.896484375,23.3671875l-0.02734375,0l0.02734375,0l-0.08203125,0l-0.123046875,0q-0.13671875,0-0.19140625,0.0546875q-0.02734375,0.013671875-0.1572265625,0.109375t-0.2119140625,0.1640625q-0.21875,0.177734375-1.28515625,0.984375q-0.669921875,0.560546875-2.064453125,1.626953125q1.12109375-0.68359375,1.3671875-0.79296875q0.1640625-0.08203125,0.369140625-0.1640625q0.0546875-0.02734375,0.1162109375-0.1572265625t0.1298828125-0.1845703125q0.0546875-0.0546875,0.1640625-0.0546875l0.0546875,0q0.08203125,0,0.19140625-0.0341796875t0.150390625-0.0478515625q0.205078125-0.041015625,0.669921875-0.396484375l1.681640625-1.025390625l-0.24609375-0.0546875q-0.259765625-0.0546875-0.369140625-0.0546875t-0.1640625,0.02734375z M8.17578125,23.33984375l-0.02734375,0l0.02734375,0q-0.08203125,0.02734375-0.423828125,0.02734375l-0.1640625,0q-0.423828125,0.177734375-0.533203125,0.2734375q-0.396484375,0.287109375-1.39453125,1.0390625q-0.369140625,0.30078125-0.95703125,0.806640625q-0.4375,0.287109375-0.396484375,0.396484375q0.6015625-0.369140625,1.9208984375-1.244140625t2.0302734375-1.298828125l-0.08203125,0z M1.517578125,24.76171875q0.13671875-0.24609375,0.4306640625-0.7109375t0.4306640625-0.7109375q-0.287109375,0.205078125-0.642578125,0.3828125q-0.13671875,0.08203125-0.13671875,0.232421875q0,0.109375-0.02734375,0.1640625l0,0.08203125q0,0.08203125-0.02734375,0.24609375t-0.02734375,0.232421875l0,0.08203125z M3.103515625,23.298828125l0.02734375,0l-0.02734375,0l-0.0546875,0q-0.068359375,0-0.13671875-0.02734375t-0.08203125-0.02734375t-0.109375,0.095703125q-0.0546875,0.08203125-0.1572265625,0.24609375t-0.1572265625,0.24609375q-0.08203125,0.123046875-0.560546875,0.90234375q0.41015625-0.232421875,1.216796875-0.7109375t1.216796875-0.724609375q-0.19140625-0.02734375-0.587890625-0.02734375t-0.587890625,0.02734375z M4.224609375,25.376953125l0.109375-0.08203125q-0.02734375,0.02734375-0.109375,0.08203125q-0.0546875,0.02734375-0.0546875,0.0546875l0.0546875,0.109375q0.13671875-0.13671875,0.4443359375-0.396484375t0.3759765625-0.328125q-0.3828125,0.30078125-0.8203125,0.560546875z M4.5390625,32.71875q0,0.0546875,0.02734375,0.08203125q0.150390625-0.08203125,0.615234375-0.3212890625t0.68359375-0.3486328125t0.6220703125-0.341796875t0.6630859375-0.4033203125t0.57421875-0.41015625t0.560546875-0.4716796875q-0.369140625,0.232421875-1.0732421875,0.6357421875t-0.8818359375,0.5126953125q-0.21875,0.123046875-0.642578125,0.3759765625t-0.642578125,0.3759765625q-0.4921875,0.24609375-0.505859375,0.314453125z M6.04296875,32.431640625q-1.01171875,0.6015625-1.09375,0.642578125q-0.0546875,0.02734375-0.123046875,0.068359375t-0.095703125,0.0546875t-0.0615234375,0.0478515625t-0.0478515625,0.0615234375t-0.0205078125,0.08203125t-0.0068359375,0.13671875q0.232421875-0.19140625,0.7177734375-0.5537109375t0.7314453125-0.5400390625z M4.5390625,37.66796875l0.02734375,0l-0.02734375,0l0,0.08203125l0,0.0546875q1.189453125-0.73828125,2.625-1.763671875q0.041015625-0.02734375,0.232421875-0.150390625t0.3896484375-0.2529296875t0.4033203125-0.2802734375t0.328125-0.2802734375t0.109375-0.1845703125q-0.396484375,0.232421875-1.1962890625,0.7041015625t-1.2099609375,0.7041015625q-0.123046875,0.068359375-0.62890625,0.35546875t-0.779296875,0.423828125q-0.1640625,0.109375-0.205078125,0.1572265625t-0.041015625,0.1845703125t-0.02734375,0.24609375z M8.517578125,37.189453125l-0.123046875,0.02734375l0.123046875-0.02734375q-0.560546875,0.19140625-1.83203125,0.9296875q0.806640625-0.3828125,1.244140625-0.615234375q0.013671875-0.013671875,0.287109375-0.13671875t0.30078125-0.177734375z M6.248046875,38.009765625l0.24609375-0.150390625l-0.451171875,0.259765625q0.068359375-0.02734375,0.205078125-0.109375q0.587890625-0.314453125,1.3671875-0.79296875q0.861328125-0.423828125,0.875-0.560546875q-0.90234375,0.41015625-2.474609375,1.435546875q-0.396484375,0.2734375-0.888671875,0.533203125q-0.02734375,0.013671875-0.19140625,0.0888671875t-0.259765625,0.123046875t-0.2119140625,0.1298828125t-0.1572265625,0.1640625q0.13671875-0.08203125,1.94140625-1.12109375z M3.923828125,39.828125q-0.0546875,0.02734375-0.0546875,0.0546875l0.109375-0.08203125l-0.0546875,0.02734375q-0.109375,0.068359375-0.3212890625,0.205078125t-0.3212890625,0.205078125q0.806640625-0.478515625,1.33984375-0.779296875q-0.109375,0.0546875-0.3486328125,0.1845703125t-0.3486328125,0.1845703125z M8.421875,36.2734375q0.02734375,0,0.02734375,0.02734375q0-0.02734375-0.02734375-0.02734375z M8.681640625,35.2890625q0.013671875,0.02734375-0.2939453125,0.24609375t-0.68359375,0.4716796875t-0.3896484375,0.2666015625q0.62890625-0.35546875,0.970703125-0.560546875q0.02734375-0.02734375,0.109375-0.02734375q0.095703125,0,0.123046875,0.0546875l0.02734375,0.0546875q0,0.0546875-0.0478515625,0.1025390625t-0.13671875,0.0888671875t-0.1025390625,0.0546875q-0.095703125,0.0546875-0.4033203125,0.259765625t-0.4853515625,0.30078125q-0.068359375,0.0546875-0.751953125,0.505859375t-1.0390625,0.697265625q-0.02734375,0.013671875-0.2392578125,0.1435546875t-0.3896484375,0.2392578125t-0.3349609375,0.2392578125t-0.1572265625,0.1982421875q0.232421875-0.0546875,0.4716796875-0.19140625t0.5400390625-0.35546875t0.4375-0.30078125q1.3125-0.806640625,1.490234375-0.943359375q0.150390625-0.095703125,0.4990234375-0.3896484375t0.5537109375-0.4033203125q0.109375-0.041015625,0.150390625-0.369140625t0.08203125-0.3828125z M2.3515625,39.8828125l-0.02734375,0l0.0546875,0l-0.02734375,0q-0.779296875-0.0546875-0.779296875,0.478515625q0,0.109375,0.02734375,0.19140625q0.177734375-0.109375,0.4853515625-0.3349609375t0.4853515625-0.3349609375l-0.0546875,0l-0.109375,0l-0.0546875,0z M2.638671875,41.455078125l0.13671875,0q0.328125,0,0.861328125-0.423828125q0.24609375-0.19140625,0.751953125-0.5673828125t0.765625-0.5537109375q0.396484375-0.314453125,1.23046875-0.943359375t1.23046875-0.9296875q-0.984375,0.57421875-2.9736328125,1.72265625t-2.9873046875,1.72265625l0.478515625,0.02734375q0.109375-0.0546875,0.3828125-0.0546875l0.123046875,0z M4.5390625,41.38671875l-0.02734375,0l0.02734375,0q0.068359375,0,0.2392578125-0.041015625t0.2392578125-0.041015625t0.109375,0.02734375t0.0546875,0.02734375q0.02734375,0,0.109375-0.08203125q0.041015625-0.02734375,0.109375-0.095703125t0.109375-0.095703125q0.19140625-0.1640625,0.5810546875-0.4853515625t0.5947265625-0.4716796875q0.150390625-0.123046875,0.4716796875-0.3828125t0.505859375-0.41015625t0.4375-0.3828125t0.4443359375-0.4375q-0.21875,0.08203125-0.46484375,0.2119140625t-0.5400390625,0.2939453125t-0.4580078125,0.24609375q-1.28515625,0.765625-3.267578125,2.064453125l0.1640625,0q0.396484375,0,0.560546875,0.0546875z M6.890625,41.3046875q0.08203125,0,0.13671875,0.013671875l0.0546875,0.013671875q0.02734375,0,0.1640625-0.13671875q0.396484375-0.396484375,0.560546875-0.587890625q0.150390625-0.1640625,0.4443359375-0.46484375t0.4580078125-0.451171875q-1.572265625,0.806640625-2.830078125,1.640625q0.013671875,0,0.041015625,0.013671875t0.041015625,0.013671875q0.068359375,0,0.177734375-0.041015625t0.1640625-0.041015625t0.1640625,0.0546875q0.0546875-0.02734375,0.19140625-0.02734375l0.232421875,0z M9.21484375,39.541015625q-0.35546875,0.35546875-1.09375,1.1484375q0.861328125-0.62890625,1.544921875-1.06640625q-0.24609375,0-0.451171875-0.08203125z M11.94921875,39.9375q0,0.013671875-0.41015625,0.3076171875t-0.8681640625,0.62890625t-0.5400390625,0.4033203125q0.041015625,0,0.095703125,0.02734375t0.08203125,0.02734375l0.109375-0.0546875q0.068359375-0.041015625,0.1982421875-0.123046875t0.1982421875-0.123046875q0.546875-0.369140625,0.751953125-0.478515625q0.19140625-0.109375,0.2529296875-0.1640625t0.1025390625-0.1640625t0.02734375-0.287109375z M7.560546875,41.482421875q0.505859375-0.068359375,0.642578125-0.177734375q0.423828125-0.314453125,0.642578125-0.505859375q0.21875-0.177734375,0.6494140625-0.5263671875t0.6357421875-0.5263671875q-0.21875,0.041015625-0.4443359375,0.1640625t-0.5673828125,0.3828125t-0.3828125,0.287109375q-0.90234375,0.669921875-1.28515625,0.90234375q0.013671875,0,0.02734375,0.013671875t0.02734375,0.013671875z M8.955078125,41.359375l0.150390625-0.08203125l-0.150390625,0.08203125q0.1640625-0.095703125,0.46484375-0.3076171875t0.46484375-0.3076171875q-0.341796875,0.1640625-1.1484375,0.642578125l0.02734375,0q0.02734375,0,0.068359375-0.013671875t0.068359375-0.013671875l0.0546875,0z M10.130859375,40.89453125q-0.396484375,0.287109375-0.642578125,0.4375q0.205078125,0,0.451171875-0.24609375q0.35546875-0.30078125,0.533203125-0.423828125q-0.0546875,0.041015625-0.1708984375,0.1162109375t-0.1708984375,0.1162109375z M11.703125,41.359375q0.08203125,0,0.08203125-0.13671875q0-0.041015625-0.013671875-0.1435546875t-0.013671875-0.1572265625q0-0.123046875,0.0546875-0.232421875q-0.177734375,0.109375-0.4990234375,0.3349609375t-0.4990234375,0.3349609375l0.41015625,0l0.177734375,0l0.30078125,0z M7.08203125,40.12890625l0.505859375-0.328125q0-0.013671875-0.068359375,0.0205078125t-0.19140625,0.1162109375t-0.24609375,0.19140625q1.17578125-0.73828125,1.517578125-0.916015625q0.21875-0.109375,0.21875-0.205078125q0-0.08203125-0.02734375-0.1640625q0-0.02734375-0.013671875-0.08203125t-0.013671875-0.08203125q-0.3828125,0.41015625-1.681640625,1.44921875z M8.572265625,37.66796875q0,0.041015625-0.177734375,0.1572265625t-0.24609375,0.1572265625q-0.57421875,0.46484375-0.875,0.642578125q-0.21875,0.177734375-0.669921875,0.51953125t-0.669921875,0.505859375q1.39453125-0.875,2.1875-1.2578125q0.109375-0.0546875,0.451171875-0.19140625q0.0546875,0,0.0546875-0.109375q0-0.068359375-0.02734375-0.232421875t-0.02734375-0.19140625z M6.330078125,35.904296875q0.205078125-0.123046875,0.6357421875-0.3623046875t0.6494140625-0.3623046875q0.041015625-0.02734375,0.1845703125-0.0888671875t0.2734375-0.1298828125t0.259765625-0.150390625t0.1982421875-0.1708984375t0.041015625-0.1572265625q-0.3828125,0.232421875-1.1279296875,0.7109375t-1.1142578125,0.7109375z M13.193359375,33.1015625q0.013671875,0.02734375,0.109375-0.0546875q-0.02734375,0.02734375-0.109375,0.0546875q-0.109375,0.041015625-0.259765625,0.13671875q0.02734375,0,0.08203125,0.0205078125t0.08203125,0.0205078125q0.1640625,0,0.3076171875-0.0751953125t0.35546875-0.2666015625t0.2666015625-0.24609375q-0.13671875,0.068359375-0.4169921875,0.205078125t-0.4169921875,0.205078125z M15.23046875,32.9375q0.041015625,0,0.1435546875-0.013671875t0.1435546875-0.013671875q0.109375,0,0.1640625,0.0546875q0.341796875-0.232421875,0.451171875-0.314453125q0.73828125-0.478515625,1.2578125-0.861328125q0.150390625-0.109375,0.5537109375-0.369140625t0.62890625-0.423828125t0.5126953125-0.4169921875t0.46484375-0.4990234375q-0.875,0.51953125-5.27734375,3.048828125l0.123046875,0l0.21875,0l0.13671875,0q0.068359375-0.013671875,0.21875-0.1025390625t0.259765625-0.0888671875z M17.71875,32.212890625l-0.0546875,0.02734375l0.0546875-0.02734375q-0.013671875,0-0.08203125,0.041015625t-0.150390625,0.0888671875t-0.095703125,0.0615234375q-0.08203125,0.0546875-0.2666015625,0.1708984375t-0.2666015625,0.1708984375q0.205078125,0.013671875,0.505859375-0.24609375t0.35546875-0.287109375z M43.3909765625,28.48046875l0.02734375,0l-0.02734375-0.02734375l0,0.02734375q0,0.013671875,0.013671875,0.02734375t0.013671875,0.02734375q0,0.123046875-0.4375,0.341796875q0.02734375-0.02734375,0.109375-0.02734375q0.095703125,0,0.1708984375,0.08203125t0.0751953125,0.1640625q0,0.13671875-0.109375,0.177734375q-0.259765625,0.19140625-0.30078125,0.3828125q0.08203125-0.08203125,0.2734375-0.08203125q0.109375,0,0.109375,0.08203125q0,0.0546875-0.02734375,0.08203125q-0.013671875,0.041015625-0.1845703125,0.1572265625t-0.1708984375,0.1572265625q0.0546875,0.1640625,0.0546875,0.21875q0,0.205078125-0.1708984375,0.341796875t-0.4169921875,0.13671875l-0.095703125,0q-0.02734375,0-0.068359375-0.013671875t-0.068359375-0.013671875q-0.08203125,0-0.2734375,0.02734375t-0.287109375,0.02734375l-0.08203125,0l-0.08203125,0q-0.041015625,0-0.369140625,0.109375l-0.0546875,0q-0.13671875,0-0.13671875-0.13671875q0-0.02734375,0.0546875-0.08203125q-0.013671875,0-0.041015625-0.013671875t-0.041015625-0.013671875q-0.0546875,0-0.177734375,0.041015625t-0.1640625,0.041015625q-0.068359375,0-0.1708984375-0.02734375t-0.1572265625-0.02734375l-0.1640625,0.0546875q-0.1640625,0.08203125-0.259765625,0.08203125q-0.08203125,0-0.109375-0.0546875q-0.02734375-0.02734375-0.02734375-0.08203125t0.095703125-0.109375t0.095703125-0.08203125l0-0.02734375q-0.02734375-0.02734375-0.109375-0.287109375q-0.013671875-0.013671875-0.0751953125-0.068359375t-0.0615234375-0.095703125q0-0.02734375,0.08203125-0.109375q0.19140625-0.150390625,0.19140625-0.287109375q0-0.0546875-0.02734375-0.1572265625t-0.02734375-0.1708984375q-0.0546875,0.02734375-0.109375,0.02734375q-0.109375,0-0.109375-0.109375q0-0.205078125,0.1640625-0.287109375q0-0.02734375-0.0546875-0.2119140625t-0.0546875-0.2666015625q0-0.314453125-0.1640625-0.587890625q-0.109375,0.0546875-0.205078125,0.0546875q-0.13671875,0-0.13671875-0.08203125l0.0546875-0.109375q-0.1640625-0.02734375-0.1640625-0.109375q0-0.068359375,0.1162109375-0.21875t0.1025390625-0.177734375q-0.08203125,0.08203125-0.21875,0.08203125t-0.13671875-0.109375l0-0.02734375q0-0.08203125,0.1025390625-0.205078125t0.0888671875-0.1640625q-0.041015625-0.095703125-0.177734375-0.21875t-0.1640625-0.1640625q-0.109375-0.109375-0.19140625-0.232421875q-0.02734375-0.02734375-0.08203125-0.02734375q-0.041015625,0-0.1162109375,0.02734375t-0.1162109375,0.02734375q-0.08203125,0-0.109375-0.02734375t-0.041015625-0.0888671875t-0.0205078125-0.095703125t-0.0478515625-0.0341796875q-0.08203125,0-0.1982421875-0.0478515625t-0.1708984375-0.0615234375q-0.46484375,0-0.916015625-0.13671875q-0.02734375,0.013671875-0.1708984375,0.0888671875t-0.205078125,0.1435546875t-0.0751953125,0.150390625q0.0546875,0.1640625,0.0546875,0.341796875q0,0.13671875-0.02734375,0.19140625q-0.02734375,0.08203125-0.02734375,0.341796875q0,0.21875-0.0546875,0.328125q-0.02734375,0.0546875-0.02734375,0.259765625q0,0.341796875,0.0546875,0.615234375q0.0546875,0.4921875,0.0546875,0.779296875q0,0.19140625-0.013671875,0.546875t-0.013671875,0.51953125q0.08203125,0.4921875,0.08203125,0.560546875q0,0.02734375-0.013671875,0.08203125t-0.013671875,0.08203125q0.08203125,0.205078125,0.08203125,0.451171875q0,0.068359375-0.013671875,0.2119140625t-0.013671875,0.2119140625q0,0.041015625,0.013671875,0.1435546875t0.013671875,0.1572265625q0,0.314453125-0.08203125,0.560546875q0.02734375,0.02734375,0.02734375,0.13671875q0,0.041015625-0.013671875,0.1572265625t-0.013671875,0.1572265625q0,0.013671875-0.013671875,0.08203125t-0.013671875,0.08203125l0.02734375,0.0546875q0.02734375,0,0.08203125,0.08203125l0.02734375,0.068359375q0,0.0546875-0.13671875,0.19140625l0,0.1640625l0,0.396484375l0,0.1640625q-0.02734375,0.08203125-0.02734375,0.232421875q0,0.08203125,0.013671875,0.2666015625t0.013671875,0.2802734375l0,0.123046875q0.0546875-0.02734375,0.1640625-0.02734375q0.314453125,0,0.314453125,0.19140625q0,0.123046875-0.1640625,0.24609375q-0.02734375,0.02734375-0.095703125,0.0751953125t-0.109375,0.0751953125t-0.08203125,0.08203125t-0.0546875,0.109375l0,0.13671875q0,0.109375-0.02734375,0.1640625q0,0.02734375-0.013671875,0.1025390625t-0.013671875,0.1025390625q0,0.0546875,0.0546875,0.0546875q0.13671875,0.041015625,0.13671875,0.19140625l0,0.0546875q-0.013671875,0.068359375-0.068359375,0.1708984375t-0.068359375,0.1708984375q0.013671875,0.068359375,0.068359375,0.13671875t0.068359375,0.109375q0.02734375,0.02734375,0.02734375,0.123046875q0,0.109375-0.109375,0.2734375l0,0.287109375l0,0.1640625q0,0.21875,0.0546875,0.2734375q0.041015625,0.068359375,0.0751953125,0.2529296875t0.0888671875,0.287109375t0.177734375,0.1025390625q0.08203125,0,0.13671875-0.02734375t0.109375-0.02734375q0.068359375,0,0.1640625,0.1025390625t0.205078125,0.1025390625q0.041015625,0,0.533203125,0.08203125l0.08203125,0q0.0546875,0,0.19140625-0.013671875t0.205078125-0.013671875q0.109375,0,0.1640625,0.02734375q0.232421875-0.177734375,0.505859375-0.177734375q0.0546875,0,0.19140625,0.068359375q0.0546875,0.041015625,0.1845703125,0.0751953125t0.1982421875,0.1025390625t0.068359375,0.232421875q0.0546875,0.1640625,0.0546875,0.669921875q0.02734375,0.109375,0.02734375,0.314453125q0,0.341796875-0.109375,0.779296875q0.02734375-0.02734375,0.08203125-0.02734375q0.095703125,0,0.1572265625,0.08203125t0.0615234375,0.177734375q0,0.13671875-0.13671875,0.13671875l-0.0546875,0l-0.08203125,0q-0.02734375,0-0.041015625,0.0068359375t-0.0205078125,0.0205078125l-0.02734375,0.0546875t-0.0478515625,0.08203125q0,0.013671875-0.0751953125,0.0888671875t-0.0751953125,0.0888671875q0.041015625-0.013671875,0.068359375-0.041015625q-0.615234375,0.232421875-0.84765625,0.232421875l-0.13671875,0q-0.177734375,0-0.232421875-0.0546875q-0.109375,0.0546875-0.1640625,0.0546875q-0.013671875,0-0.0546875-0.013671875t-0.0546875-0.013671875q-0.0546875,0.02734375-0.109375,0.02734375t-0.150390625-0.041015625t-0.13671875-0.041015625q-0.02734375,0.02734375-0.0546875,0.02734375q-0.0546875,0-0.1435546875,0.02734375t-0.1572265625,0.02734375l-0.0546875,0q-0.02734375,0-0.095703125-0.02734375t-0.109375-0.02734375q-0.0546875,0.08203125-0.21875,0.13671875q-0.13671875,0-0.13671875-0.1640625l-0.150390625,0q-0.328125,0-0.41015625,0.02734375q-0.0546875,0.02734375-0.177734375,0.02734375l-0.24609375,0l-0.109375,0q-0.08203125,0.0546875-0.259765625,0.0546875q-0.1640625,0-0.4375-0.0546875q-0.041015625,0.013671875-0.1708984375,0.041015625t-0.1708984375,0.041015625l-0.08203125,0q-0.0546875,0-0.1640625-0.0546875q-0.0546875,0.0546875-0.177734375,0.0546875q-0.0546875,0-0.1982421875,0.013671875t-0.2119140625,0.013671875q-0.232421875,0-0.314453125-0.08203125l-0.08203125,0q-0.08203125,0-0.232421875-0.02734375t-0.21875-0.02734375q-0.08203125,0-0.30078125-0.0546875q-0.013671875,0-0.095703125,0.041015625t-0.13671875,0.041015625t-0.109375-0.0546875q-0.123046875,0.08203125-0.423828125,0.08203125q-0.287109375,0-0.35546875-0.109375q-0.21875,0.1640625-0.396484375,0.1640625q-0.068359375,0-0.13671875-0.02734375t-0.08203125-0.02734375q-0.068359375,0-0.123046875,0.02734375l-0.0546875,0q-0.02734375,0-0.0888671875-0.02734375t-0.1025390625-0.02734375q-0.02734375,0.02734375-0.13671875,0.02734375q-0.205078125,0-0.314453125-0.0546875q-0.109375,0.0546875-0.35546875,0.0546875q-0.177734375,0-0.287109375-0.02734375q-0.0546875,0.02734375-0.1640625,0.02734375l-0.287109375,0l-0.13671875,0q-0.328125,0.08203125-0.478515625,0.08203125q-0.423828125,0-0.560546875-0.24609375q-0.13671875-0.232421875-0.13671875-0.84765625q0-0.2734375,0.02734375-0.35546875q-0.0546875,0.02734375-0.109375,0.02734375t-0.0546875-0.068359375t0.08203125-0.232421875l0.08203125-0.150390625q0-0.4921875,0.109375-0.642578125q-0.0546875-0.109375-0.0546875-0.177734375q0-0.1640625,0.1708984375-0.2734375t0.3896484375-0.109375q0.232421875,0,0.369140625,0.13671875q0.02734375-0.013671875,0.177734375-0.123046875t0.24609375-0.095703125q0.109375,0,0.109375,0.13671875l0.0546875,0q0.0546875,0,0.08203125,0.02734375l0.08203125,0q0.068359375,0,0.2255859375-0.02734375t0.2255859375-0.02734375l0.0546875,0q0.08203125,0.013671875,0.2119140625-0.08203125t0.1845703125-0.095703125q0.068359375,0,0.109375,0.041015625q0.013671875-0.013671875,0.0751953125-0.0546875t0.0888671875-0.041015625q0.205078125-0.259765625,0.396484375-0.35546875q0-0.19140625,0.08203125-0.314453125q0.109375-0.150390625,0.109375-0.35546875q0-0.109375-0.02734375-0.341796875t-0.02734375-0.341796875q0-0.13671875,0.02734375-0.21875l0-0.2734375l0-0.123046875l-0.109375-0.3828125q0.013671875-0.068359375,0.0478515625-0.109375t0.0341796875-0.095703125l0-0.21875q-0.08203125-0.24609375-0.08203125-0.697265625q0-0.35546875,0.08203125-0.560546875q0-0.02734375,0.013671875-0.068359375t0.013671875-0.068359375q0-0.068359375-0.02734375-0.2119140625t-0.02734375-0.2119140625l0-0.08203125q-0.02734375-0.0546875-0.02734375-0.232421875q0-0.24609375,0.0546875-0.46484375l-0.0546875,0.02734375q-0.13671875,0-0.13671875-0.232421875q0-0.08203125,0.02734375-0.109375q0.02734375-0.041015625,0.0888671875-0.123046875t0.095703125-0.150390625t0.0341796875-0.123046875q0-0.041015625-0.013671875-0.1298828125t-0.013671875-0.1162109375l0-0.13671875q0-0.177734375-0.0546875-0.177734375q-0.13671875-0.041015625-0.13671875-0.1640625l0-0.02734375q0-0.02734375,0.068359375-0.0888671875t0.068359375-0.0751953125l0-0.232421875q-0.02734375-0.0546875-0.02734375-0.328125q0-0.177734375,0.02734375-0.232421875q-0.109375-0.21875-0.109375-0.24609375t0.0546875-0.08203125q0-0.02734375,0.0546875-0.0546875l0.0546875-0.02734375q0.08203125-0.205078125,0.08203125-0.396484375q0-0.08203125-0.013671875-0.24609375t-0.013671875-0.232421875q-0.02734375-0.13671875-0.02734375-0.423828125l0-0.109375l0-0.2734375q0-0.013671875-0.0615234375-0.0615234375t-0.0751953125-0.0751953125l0-0.068359375q0-0.123046875,0.19140625-0.24609375q0-0.13671875,0.02734375-0.19140625q-0.08203125-0.08203125-0.08203125-0.314453125l0-0.0546875q-0.02734375-0.068359375-0.0546875-0.21875t-0.02734375-0.177734375l0-0.1640625q0-0.109375-0.02734375-0.1640625q-0.13671875-0.041015625-0.13671875-0.1640625l0-0.02734375q0.013671875-0.0546875,0.068359375-0.1162109375t0.068359375-0.1162109375l0-0.30078125q0-0.205078125,0.0546875-0.478515625q-0.0546875,0.02734375-0.314453125,0.02734375q-0.041015625,0-0.1708984375,0.013671875t-0.1845703125,0.013671875l-0.08203125,0q-0.13671875,0.02734375-0.24609375,0.08203125t-0.2255859375,0.1435546875t-0.1982421875,0.1298828125q-0.615234375,0.341796875-0.95703125,0.341796875q0.041015625,0.205078125-0.259765625,0.423828125q-0.21875,0.109375-0.369140625,0.51953125t-0.177734375,0.451171875q-0.013671875,0.08203125-0.095703125,0.4306640625t-0.08203125,0.5537109375l0,0.109375q0.0546875-0.02734375,0.109375-0.02734375q0.068359375,0,0.068359375,0.0546875t-0.0546875,0.1435546875t-0.109375,0.1572265625l-0.041015625,0.068359375q0.041015625,0.19140625,0.08203125,0.24609375q0.02734375,0.02734375,0.02734375,0.095703125q0,0.0546875-0.08203125,0.13671875q-0.0546875,0.041015625-0.0751953125,0.1025390625t-0.0205078125,0.1572265625t-0.013671875,0.13671875q-0.013671875,0.068359375-0.0205078125,0.1162109375t-0.02734375,0.0888671875t-0.0341796875,0.0546875t-0.0615234375,0.0546875t-0.0751953125,0.068359375q-0.205078125,0.205078125-0.451171875,0.205078125q-0.08203125,0-0.232421875-0.0341796875t-0.21875-0.0341796875q-0.041015625-0.013671875-0.259765625-0.0546875t-0.24609375-0.0546875q-0.02734375,0-0.095703125,0.013671875t-0.095703125,0.013671875q-0.13671875,0-0.13671875-0.08203125q-0.1640625,0.08203125-0.205078125,0.08203125q-0.08203125,0-0.109375-0.0546875q-0.02734375-0.02734375-0.13671875-0.02734375l-0.1640625,0q-0.068359375,0.013671875-0.21875,0.08203125t-0.232421875,0.08203125q-0.287109375,0-0.287109375-0.21875l0-0.0546875q0.068359375-0.24609375,0.123046875-0.369140625l0-0.08203125q0-0.109375,0.02734375-0.13671875q-0.0546875-0.08203125-0.0546875-0.533203125l0-0.369140625q-0.041015625-0.1640625-0.041015625-0.3828125q0-0.287109375-0.02734375-0.396484375q-0.08203125,0.0546875-0.1640625,0.0546875t-0.08203125-0.109375q0-0.232421875,0.19140625-0.423828125l0-0.24609375q0-0.259765625,0.0546875-0.369140625q0.013671875-0.0546875,0.02734375-0.177734375t0.02734375-0.232421875t0.041015625-0.177734375q0-0.0546875-0.013671875-0.21875t-0.013671875-0.232421875l0-0.109375l0-0.19140625l0-0.341796875q0-0.451171875,0.08203125-0.642578125q-0.123046875-0.615234375-0.150390625-0.888671875q-0.08203125,0.08203125-0.1640625,0.08203125q-0.109375,0-0.109375-0.13671875q0-0.08203125,0.08203125-0.205078125q0.150390625-0.150390625,0.21875-0.35546875l0-0.232421875l0-0.02734375l0-0.08203125q0-0.1640625,0.1845703125-0.2666015625t0.4033203125-0.1025390625q0.02734375,0,0.0888671875,0.013671875t0.0888671875,0.013671875q0.095703125-0.013671875,0.533203125-0.0615234375t0.669921875-0.0478515625l0.21875,0q0.4921875,0.0546875,0.724609375,0.0546875q0.35546875,0,0.68359375-0.109375q0.02734375-0.02734375,0.109375-0.02734375t0.2392578125,0.0546875t0.2392578125,0.0546875q0.123046875,0.013671875,0.341796875,0.0546875t0.30078125,0.0546875l0.19140625,0q0.123046875,0,0.1640625,0.041015625q0.08203125-0.041015625,0.177734375-0.041015625l0.0546875,0q0.1640625-0.0546875,0.35546875-0.0546875q0.08203125-0.08203125,0.287109375-0.08203125l0.0546875,0q0.08203125,0.02734375,0.24609375,0.02734375l0.314453125,0l0.13671875,0q0.068359375,0,0.314453125,0.08203125q0.068359375,0,0.205078125,0.0341796875t0.205078125,0.0341796875q0.08203125,0,0.232421875-0.095703125q0.109375-0.109375,0.328125-0.109375q0.095703125,0,0.095703125,0.0546875q0,0.02734375-0.041015625,0.109375q0.02734375-0.02734375,0.123046875-0.02734375q0.041015625,0,0.13671875,0.013671875t0.13671875,0.013671875l0.08203125,0q0.0546875-0.02734375,0.177734375-0.02734375q0.150390625,0,0.35546875,0.068359375q0.068359375-0.068359375,0.205078125-0.068359375l0.21875,0l0.109375,0l0.109375,0l0.259765625,0q0.314453125,0,0.505859375-0.0546875q0.068359375-0.013671875,0.205078125-0.095703125t0.232421875-0.068359375q0.232421875,0,0.505859375,0.13671875l0.109375,0l0.205078125,0l0.109375,0q0.177734375,0,0.396484375,0.0546875q0.109375-0.0546875,0.30078125-0.0546875l0.08203125,0q0.02734375,0.02734375,0.109375,0.02734375q0.041015625,0,0.123046875-0.041015625t0.13671875-0.041015625q0.013671875,0,0.041015625,0.013671875t0.041015625,0.013671875q0.0546875,0.02734375,0.1640625,0.02734375q0.0546875,0,0.177734375-0.013671875t0.19140625-0.013671875q0.068359375,0.013671875,0.109375,0.0615234375t0.08203125,0.0478515625q0.0546875,0,0.109375-0.02734375q0.1640625-0.109375,0.314453125-0.109375q0.109375,0,0.1640625,0.0546875l0.177734375,0l0.2734375,0q0.205078125,0,0.314453125-0.02734375q0.1640625-0.0546875,0.2734375-0.0546875q0.177734375,0,0.505859375,0.08203125q0.08203125-0.02734375,0.24609375-0.02734375q0.109375,0,0.328125,0.02734375t0.314453125,0.02734375q0.109375-0.0546875,0.205078125-0.0546875q0.13671875,0,0.30078125,0.0546875q0.1640625-0.0546875,0.287109375-0.0546875q0.041015625,0,0.779296875,0.08203125q0.341796875,0,0.341796875,0.68359375q0,0.1640625-0.02734375,0.21875l0,0.451171875l0,0.21875q0.02734375,0.08203125,0.02734375,0.423828125l0,0.24609375q0,0.205078125-0.02734375,0.287109375q-0.0546875,0.13671875-0.0546875,0.560546875q0.0546875-0.02734375,0.13671875-0.02734375q0.109375,0,0.109375,0.109375q0,0.150390625-0.13671875,0.24609375q-0.109375,0.109375-0.109375,0.205078125l0,0.109375q0,0.08203125-0.02734375,0.1640625l0.0546875,0q0.13671875,0,0.13671875,0.109375l0,0.02734375q-0.041015625,0.13671875-0.1640625,0.177734375l0,0.1640625q0.08203125,0.205078125,0.08203125,0.505859375q0.02734375,0.0546875,0.02734375,0.21875q0,0.123046875-0.041015625,0.396484375t-0.041015625,0.3828125l0.2734375-0.13671875q0.08203125,0,0.109375,0.0546875z M40.6292578125,29.943359375q0.259765625-0.150390625,1.1484375-0.669921875q0.0546875-0.02734375,0.1435546875-0.0751953125t0.1298828125-0.068359375t0.1025390625-0.0546875t0.08203125-0.0751953125t0.0546875-0.0888671875t0.0341796875-0.1162109375l0-0.1640625q-0.013671875,0.041015625-0.1162109375,0.0888671875t-0.2392578125,0.095703125t-0.1640625,0.0615234375q-0.150390625,0.068359375-0.4169921875,0.232421875t-0.3212890625,0.19140625l-0.150390625,0.0751953125t-0.2119140625,0.109375t-0.1640625,0.123046875t-0.0615234375,0.1298828125q0.02734375,0.02734375,0.02734375,0.123046875l0,0.0546875q0,0.02734375,0.02734375,0.02734375l0.095703125,0z M42.3929296875,27.865234375l-0.02734375,0.02734375l0.02734375-0.02734375q-0.123046875,0.24609375-0.7109375,0.765625q0.02734375-0.013671875,0.123046875-0.068359375t0.205078125-0.095703125t0.177734375-0.041015625q0.095703125,0,0.13671875,0.109375q0.068359375-0.41015625,0.068359375-0.51953125l0-0.150390625z M42.3929296875,27.33203125l0,0.02734375l0-0.02734375q0-0.013671875-0.4580078125,0.30078125t-0.5810546875,0.41015625q0.751953125-0.560546875,0.943359375-0.560546875q0.068359375,0,0.123046875,0.0546875l0-0.0546875q0-0.013671875-0.0068359375-0.013671875t-0.0068359375-0.0068359375t-0.0068359375-0.041015625t-0.0068359375-0.0888671875z M39.7542578125,26.921875l0.02734375-0.02734375l-0.02734375,0.02734375q0.02734375-0.013671875,0.109375-0.0751953125t0.109375-0.0751953125q-0.013671875,0.013671875-0.068359375,0.0341796875t-0.1025390625,0.0478515625t-0.0478515625,0.068359375z M39.8362890625,26.279296875l0.177734375-0.150390625q-0.068359375,0-0.177734375,0.150390625q1.1484375-0.68359375,2.4609375-1.326171875q0.150390625-0.08203125,0.150390625-0.478515625q0-0.423828125-0.0546875-0.642578125q-0.123046875,0.123046875-0.6220703125,0.560546875t-0.7177734375,0.642578125t-0.5810546875,0.5673828125t-0.6357421875,0.6767578125z M42.3245703125,25.91015625l-0.02734375,0l0.02734375,0z M42.3245703125,26.798828125l0,0.041015625l0-0.041015625q0-0.02734375-0.02734375-0.0546875q-0.13671875,0.109375-0.4169921875,0.341796875t-0.4169921875,0.341796875l0.150390625-0.0751953125t0.1845703125-0.0888671875t0.1708984375-0.095703125t0.1708984375-0.1162109375t0.1162109375-0.1162109375t0.068359375-0.13671875z M41.4905859375,23.3671875l0.02734375,0.02734375l-0.02734375-0.02734375q-0.08203125,0.013671875-0.1640625,0.0205078125t-0.123046875,0.013671875t-0.1025390625,0.0341796875t-0.1435546875,0.095703125q-0.232421875,0.232421875-0.669921875,0.615234375q-1.134765625,0.90234375-1.572265625,1.33984375q0.068359375,0.02734375,0.095703125,0.068359375q0,0.013671875,0.013671875,0.013671875q0.041015625,0,0.123046875-0.0546875l0.24609375-0.1640625q0.08203125-0.0546875,0.2392578125-0.1845703125t0.2392578125-0.1845703125q0.095703125-0.068359375,0.4716796875-0.3349609375t0.5947265625-0.3896484375q0.888671875-0.669921875,1.4765625-0.916015625q-0.041015625-0.041015625-0.109375-0.041015625t-0.2392578125,0.0478515625t-0.2392578125,0.0478515625q-0.08203125,0-0.13671875-0.02734375z M38.7425390625,23.39453125l0.02734375,0l-0.02734375,0q-0.08203125-0.02734375-0.19140625-0.02734375q-0.08203125,0-0.13671875,0.0546875q-0.041015625,0.041015625-0.1298828125,0.109375t-0.1298828125,0.109375q-0.109375,0.068359375-0.3349609375,0.2255859375t-0.3349609375,0.2255859375q-0.57421875,0.396484375-1.626953125,1.0390625q0.0546875-0.02734375,0.150390625-0.02734375q0.109375,0,0.13671875,0.02734375q0.08203125-0.08203125,0.1640625-0.123046875q0.013671875,0,0.041015625-0.013671875t0.041015625-0.013671875q0.02734375,0,0.1025390625,0.02734375t0.1025390625,0.02734375l0.0546875-0.02734375q0.109375-0.0546875,0.19140625-0.0546875q0.19140625,0,0.259765625,0.109375q0.109375-0.02734375,0.328125-0.19140625q0.123046875-0.08203125,2.26953125-1.53125l-0.08203125,0q-0.041015625,0-0.1572265625,0.013671875t-0.1572265625,0.013671875q-0.109375,0-0.1640625-0.02734375l-0.0546875,0q-0.0546875,0-0.1708984375,0.02734375t-0.1708984375,0.02734375z M34.0667578125,34.33203125l0.369140625-0.21875q0-0.013671875-0.13671875,0.068359375t-0.232421875,0.150390625q0.19140625-0.109375,0.546875-0.3212890625t0.546875-0.3212890625q0.0546875-0.02734375,0.177734375-0.08203125t0.1708984375-0.0888671875t0.095703125-0.1162109375t0.0341796875-0.19140625q-0.177734375,0.21875-0.4443359375,0.4033203125t-0.6083984375,0.3896484375t-0.51953125,0.328125z M35.6937109375,38.255859375q0.013671875,0.02734375-0.1435546875,0.150390625t-0.396484375,0.287109375t-0.46484375,0.3076171875t-0.4375,0.2802734375t-0.2392578125,0.150390625q-0.765625,0.533203125-2.939453125,1.955078125q0.451171875-0.1640625,0.90234375-0.423828125t1.06640625-0.669921875t0.833984375-0.546875q0.875-0.587890625,1.490234375-1.06640625q0.02734375-0.013671875,0.0751953125-0.0478515625t0.068359375-0.041015625t0.0546875-0.0341796875t0.0478515625-0.041015625t0.0341796875-0.041015625t0.02734375-0.0478515625t0.013671875-0.0478515625t0.0068359375-0.068359375l0-0.0546875z M35.6390234375,36.970703125l-0.314453125,0.1640625q0,0.013671875,0.08203125-0.0205078125t0.1572265625-0.08203125t0.0751953125-0.0615234375q-0.533203125,0.30078125-1.1005859375,0.669921875t-1.271484375,0.84765625t-1.0732421875,0.724609375q0.943359375-0.533203125,2.1875-1.353515625q0.013671875-0.013671875,0.4033203125-0.205078125t0.615234375-0.3623046875t0.2392578125-0.3212890625z M35.6116796875,35.767578125l-0.08203125,0.02734375l0.08203125-0.02734375q-0.08203125,0.0546875-0.2529296875,0.1640625t-0.2529296875,0.1640625q0.02734375-0.013671875,0.1845703125-0.068359375t0.2392578125-0.1162109375t0.08203125-0.1435546875z M35.5843359375,36.19140625l-0.259765625,0.1640625q0.259765625-0.13671875,0.259765625-0.1640625q-0.314453125,0.19140625-3.021484375,1.845703125q-0.02734375,0.013671875-0.615234375,0.4375q-0.35546875,0.177734375-0.423828125,0.314453125q-0.02734375,0.068359375-0.123046875,0.19140625t-0.095703125,0.232421875q0.02734375,0.150390625-0.259765625,0.4375q0.4921875-0.328125,1.4560546875-0.9775390625t1.4560546875-0.9775390625q0.21875-0.13671875,0.65625-0.4169921875t0.65625-0.4169921875t0.2802734375-0.1982421875t0.0615234375-0.1982421875q0-0.041015625-0.013671875-0.1298828125t-0.013671875-0.1435546875z M31.6331640625,37.927734375q0.46484375-0.396484375,1.3740234375-1.1689453125t1.3740234375-1.1552734375q-0.9296875,0.6015625-2.3515625,1.4765625q-0.02734375,0.02734375-0.1298828125,0.0888671875t-0.1845703125,0.1162109375t-0.08203125,0.109375q0.02734375,0.0546875,0.02734375,0.24609375q0,0.205078125-0.02734375,0.287109375z M31.6331640625,36.833984375l0,0.0546875q2.4609375-1.9140625,3.759765625-2.994140625q-1.66796875,0.9296875-2.419921875,1.39453125q-0.287109375,0.1640625-0.7861328125,0.4716796875t-0.5810546875,0.3623046875q0,0.109375,0.013671875,0.3486328125t0.013671875,0.3623046875z M33.2054296875,30.640625l-0.232421875,0.1640625q0,0.013671875,0.095703125-0.0478515625t0.1845703125-0.13671875t0.0888671875-0.0888671875q-0.02734375,0.02734375-0.13671875,0.109375q-0.669921875,0.533203125-1.203125,0.875q-0.041015625,0.02734375-0.1435546875,0.0888671875t-0.1435546875,0.1025390625t-0.0888671875,0.1025390625t-0.0478515625,0.1435546875q0,0.095703125,0.02734375,0.150390625q1.244140625-1.09375,3.609375-2.830078125q-0.65625,0.35546875-2.009765625,1.3671875z M35.6116796875,29.328125l-0.19140625,0.13671875q0.19140625-0.109375,0.19140625-0.13671875q-1.6953125,1.23046875-2.43359375,1.818359375q-0.150390625,0.123046875-0.5263671875,0.4169921875t-0.5673828125,0.4716796875q-0.041015625,0.02734375-0.1162109375,0.0888671875t-0.1162109375,0.1025390625l-0.095703125,0.095703125t-0.0751953125,0.1162109375t-0.0205078125,0.1298828125q0.451171875-0.259765625,1.3330078125-0.779296875t1.3330078125-0.779296875q0.041015625-0.013671875,0.232421875-0.1025390625t0.341796875-0.1640625t0.328125-0.177734375t0.287109375-0.2119140625t0.123046875-0.19140625q-0.0546875-0.21875-0.0546875-0.533203125q0-0.21875,0.02734375-0.30078125z M31.7698828125,32.80078125l0.177734375-0.08203125q-0.068359375,0.02734375-0.177734375,0.08203125q-0.13671875,0.109375-0.13671875,0.30078125l0,0.13671875q0.73828125-0.65625,1.544921875-1.2578125q-1.052734375,0.62890625-1.408203125,0.8203125z M31.5784765625,35.04296875l0.13671875-0.095703125l-0.13671875,0.095703125q0.24609375-0.177734375,0.8203125-0.57421875t0.998046875-0.7041015625t0.79296875-0.6083984375q0.177734375-0.123046875,0.505859375-0.3896484375t0.4921875-0.3896484375q0.041015625-0.041015625,0.19140625-0.1572265625t0.24609375-0.21875t0.095703125-0.1845703125q-1.39453125,1.0390625-2.802734375,1.900390625q-0.7109375,0.4375-1.23046875,0.642578125q-0.13671875,0.02734375-0.13671875,0.396484375q0,0.068359375,0.013671875,0.1640625t0.013671875,0.123046875z M35.6937109375,32.322265625q-0.642578125,0.505859375-0.779296875,0.615234375q0.328125-0.1640625,0.560546875-0.1640625l0.0546875,0q0.13671875-0.0546875,0.13671875-0.259765625q0-0.13671875,0.02734375-0.19140625z M34.8050390625,33.470703125l-0.177734375,0.109375q0.123046875-0.0546875,0.177734375-0.109375q-0.19140625,0.109375-0.5537109375,0.3349609375t-0.5400390625,0.3349609375q0.4921875-0.24609375,1.09375-0.669921875z M33.8206640625,32.828125l0.1640625-0.109375l-0.587890625,0.3828125q0.109375-0.08203125,0.423828125-0.2734375q1.052734375-0.697265625,1.900390625-1.353515625l0-0.4375q0-0.314453125-0.02734375-0.451171875q-1.12109375,0.697265625-2.830078125,1.982421875q-0.19140625,0.13671875-0.5400390625,0.4375t-0.4580078125,0.3828125q-0.08203125,0.068359375-0.1298828125,0.123046875t-0.0751953125,0.095703125t-0.041015625,0.1025390625t-0.0205078125,0.095703125t-0.013671875,0.13671875t-0.0068359375,0.1708984375q0.861328125-0.328125,2.2421875-1.28515625z M35.5843359375,27.619140625l0-0.02734375l0,0.02734375q-0.02734375-0.0546875-0.02734375-0.13671875q-0.1640625,0.109375-0.4716796875,0.3349609375t-0.4580078125,0.3349609375q0.46484375-0.232421875,0.615234375-0.232421875l0.08203125,0q0.177734375,0.041015625,0.177734375,0.205078125q0,0.08203125-0.0546875,0.19140625q-0.13671875,0.24609375-0.396484375,0.5126953125t-0.4169921875,0.4033203125t-0.560546875,0.4443359375t-0.4716796875,0.3486328125q0.123046875-0.08203125,0.4375-0.328125t0.5126953125-0.3896484375t0.4921875-0.287109375t0.5400390625-0.1708984375q0.0546875-0.21875,0.0546875-0.369140625q0-0.123046875-0.02734375-0.3759765625t-0.02734375-0.3759765625l0-0.109375z M31.7425390625,26.552734375l0.123046875-0.0546875q-0.041015625,0-0.123046875,0.0546875q-0.19140625,0.08203125-0.19140625,0.109375q0.205078125-0.095703125,0.5673828125-0.3076171875t0.4990234375-0.2802734375q-0.587890625,0.314453125-0.875,0.478515625z M37.6214453125,23.39453125l-0.1640625,0.08203125q0-0.013671875,0.1640625-0.08203125q-0.396484375,0.1640625-0.779296875,0.3759765625t-0.8134765625,0.4853515625t-0.7041015625,0.4580078125t-0.779296875,0.5400390625t-0.697265625,0.4921875q-1.1484375,0.73828125-1.791015625,1.203125q-0.0546875,0.02734375-0.1708984375,0.1025390625t-0.1640625,0.109375t-0.095703125,0.109375t-0.0478515625,0.1572265625q0,0.109375,0.02734375,0.19140625q1.0390625-0.861328125,3.2880859375-2.1943359375t3.2060546875-2.0849609375q-0.328125,0.08203125-0.35546875,0.08203125q-0.095703125,0-0.123046875-0.02734375z M32.7542578125,27.359375l0.314453125-0.1640625l-0.314453125,0.1640625q0.2734375-0.1640625,0.84765625-0.46484375l0.861328125-0.451171875q0.02734375-0.013671875,0.3486328125-0.1845703125t0.5537109375-0.328125t0.21875-0.2392578125q-0.546875,0.2734375-1.53125,0.8818359375t-1.298828125,0.7861328125z M33.6292578125,27.455078125l-0.02734375,0.02734375l0.02734375-0.02734375q-0.150390625,0.095703125-0.7314453125,0.4716796875t-0.8681640625,0.6083984375q0.779296875-0.4375,1.599609375-1.080078125z M35.4202734375,26.18359375q-0.150390625,0.109375-0.46484375,0.341796875t-0.46484375,0.341796875q0.57421875-0.396484375,0.90234375-0.533203125q0.205078125-0.13671875,0.21875-0.177734375l0-0.13671875q-0.109375,0.109375-0.19140625,0.1640625z M34.9144140625,25.74609375l0.1640625-0.123046875q-0.08203125,0.068359375-0.1640625,0.123046875q0.068359375-0.041015625,0.2255859375-0.123046875t0.2802734375-0.1640625t0.19140625-0.1640625q-0.13671875,0.08203125-0.3828125,0.24609375t-0.314453125,0.205078125z M35.7210546875,25.240234375l0-0.02734375l0.02734375,0l-0.02734375,0.02734375l0.0546875-0.0546875z M31.7151953125,28.31640625q0.08203125-0.041015625,0.08203125-0.0546875q-0.08203125,0.02734375-0.08203125,0.0546875q0.396484375-0.205078125,0.984375-0.615234375q-0.02734375,0.013671875-0.1640625,0.0751953125t-0.259765625,0.123046875t-0.259765625,0.13671875t-0.21875,0.150390625t-0.08203125,0.1298828125z M32.9183203125,28.42578125l-0.30078125,0.232421875q-0.02734375,0,0.451171875-0.314453125q-0.041015625,0.02734375-0.150390625,0.08203125q-0.806640625,0.478515625-0.916015625,0.8203125q0,0.02734375,0.02734375,0.02734375q0.08203125,0,0.2529296875-0.0751953125t0.1708984375-0.1025390625q0.6015625-0.328125,1.873046875-1.3671875q0.13671875-0.095703125,0.4033203125-0.2939453125t0.4033203125-0.2939453125q0.02734375-0.013671875,0.177734375-0.095703125t0.2119140625-0.150390625t0.0615234375-0.150390625q-0.24609375,0.1640625-1.216796875,0.7451171875t-1.44921875,0.9365234375z M35.2698828125,23.421875q-0.08203125,0-0.08203125,0.0546875q0.02734375,0,0.08203125-0.0546875q-0.095703125,0.013671875-0.177734375,0.0546875t-0.1162109375,0.0615234375t-0.13671875,0.1162109375t-0.1298828125,0.123046875q0.24609375-0.177734375,0.560546875-0.35546875z M24.9202734375,29.546875l0.02734375-0.02734375l-0.02734375,0.02734375q0-0.013671875,0.2255859375-0.21875t0.478515625-0.4306640625t0.2939453125-0.2666015625q0.205078125-0.177734375,0.587890625-0.5263671875t0.587890625-0.5126953125q-0.861328125,0.4921875-1.708984375,1.17578125q-0.150390625,0.109375-0.24609375,0.109375q-0.109375,0-0.109375-0.1640625q0-0.19140625,0.08203125-0.314453125q0.123046875-0.177734375,0.3076171875-0.369140625t0.2939453125-0.287109375t0.3828125-0.3076171875t0.328125-0.2666015625q0.205078125-0.123046875,0.560546875-0.3828125t0.396484375-0.287109375q0.0546875-0.041015625,0.287109375-0.177734375t0.4033203125-0.259765625t0.1982421875-0.205078125q-2.296875,1.39453125-3.47265625,2.091796875q0,0.0546875,0.0478515625,0.3349609375t0.0478515625,0.4306640625l0,0.109375q0.0546875,0.2734375,0.0546875,0.533203125q0,0.13671875-0.02734375,0.19140625z M28.1331640625,23.5859375l-0.13671875,0.08203125l0.1640625-0.109375l-0.02734375,0.02734375q-0.423828125,0.2734375-1.421875,0.861328125t-1.517578125,0.9296875q1.1484375-0.615234375,3.3359375-2.009765625l-0.02734375,0q-0.041015625,0-0.369140625,0.21875z M27.0394140625,24.59765625l-0.505859375,0.30078125l0.505859375-0.30078125q-0.943359375,0.587890625-1.791015625,1.025390625l-0.123046875,0.0615234375t-0.109375,0.068359375t-0.0478515625,0.068359375t-0.0478515625,0.1162109375q0,0.095703125,0.013671875,0.30078125t0.013671875,0.287109375q0.875-0.779296875,2.5703125-2.21484375q-0.19140625,0.095703125-0.478515625,0.287109375z M24.7972265625,27.673828125l0.095703125-0.0546875q-0.095703125,0.02734375-0.095703125,0.0546875q0.0546875-0.041015625,0.4033203125-0.259765625t0.5537109375-0.328125q-0.02734375,0.013671875-0.177734375,0.0751953125t-0.2392578125,0.1025390625t-0.21875,0.109375t-0.2119140625,0.1435546875t-0.109375,0.1572265625z M24.9476171875,24.6796875q0.123046875-0.21875,0.3896484375-0.6357421875t0.3896484375-0.6220703125q-0.109375,0.02734375-0.4990234375,0.24609375t-0.4033203125,0.287109375q0.123046875,0.369140625,0.123046875,0.642578125l0,0.08203125z M28.9534765625,25.431640625q0.0546875,0,0.08203125-0.0546875q-0.013671875,0.013671875-0.041015625,0.02734375t-0.041015625,0.02734375z M32.0296484375,23.83203125l-0.287109375,0.177734375q0.232421875-0.150390625,0.287109375-0.177734375q-1.244140625,0.765625-2.4609375,1.517578125q1.244140625-0.724609375,2.4609375-1.517578125z M31.8929296875,24.734375q0,0.013671875,0.041015625-0.013671875t0.08203125-0.068359375l0.041015625-0.02734375q-0.0546875,0.02734375-0.1640625,0.109375q0,0.013671875,0.0615234375-0.0205078125t0.1298828125-0.08203125t0.08203125-0.0615234375q0.423828125-0.232421875,0.724609375-0.423828125q0.232421875-0.109375,0.6494140625-0.35546875t0.4990234375-0.287109375q-0.02734375,0.02734375-0.109375,0.02734375l-0.109375,0q-0.0546875,0-0.109375,0.02734375q-0.095703125,0.068359375-0.2939453125,0.1982421875t-0.2939453125,0.1982421875q-0.642578125,0.369140625-1.23046875,0.779296875z M31.4964453125,23.44921875q-0.095703125-0.013671875-0.259765625,0.0888671875t-0.35546875,0.2666015625t-0.259765625,0.205078125q-0.177734375,0.123046875-0.533203125,0.3759765625t-0.546875,0.3759765625q1.681640625-0.984375,2.201171875-1.2578125q-0.041015625,0-0.123046875-0.02734375t-0.123046875-0.02734375z M30.9358984375,23.33984375l-0.24609375,0.109375l0.24609375-0.109375q-0.21875,0.095703125-0.423828125,0.1982421875t-0.4443359375,0.232421875t-0.4033203125,0.21875t-0.4375,0.259765625t-0.3896484375,0.24609375t-0.423828125,0.2802734375t-0.3828125,0.2529296875t-0.423828125,0.2802734375l-0.3896484375,0.259765625q2.21484375-1.271484375,3.7734375-2.228515625l-0.0546875,0z M27.0941015625,27.974609375l0,0.041015625l0-0.041015625q-0.478515625,0.396484375-0.560546875,0.451171875q-0.123046875,0.109375-0.3759765625,0.3349609375t-0.3759765625,0.3349609375q-0.013671875,0.013671875-0.2734375,0.232421875t-0.4169921875,0.4033203125t-0.1435546875,0.2939453125q0.287109375,0.02734375,0.5673828125-0.0888671875t0.6767578125-0.3828125t0.51953125-0.3349609375q0.21875-0.123046875,0.21875-0.287109375q0-0.205078125,0.0546875-0.369140625l0-0.08203125q0-0.341796875,0.109375-0.505859375z M27.5999609375,26.662109375q0,0.02734375-0.560546875,0.396484375q-0.369140625,0.259765625-0.587890625,0.451171875q-0.587890625,0.423828125-0.943359375,0.833984375q0.9296875-0.724609375,1.53125-1.01171875q0.041015625-0.02734375,0.1025390625-0.0478515625t0.1025390625-0.041015625t0.08203125-0.0546875t0.0546875-0.0751953125l0-0.02734375q0-0.259765625,0.21875-0.423828125z M31.6331640625,25.541015625l0.02734375-0.02734375l-0.02734375,0.02734375l0,0.150390625q2.064453125-1.326171875,3.021484375-2.21484375q-0.287109375,0.1640625-0.875,0.4921875t-0.888671875,0.505859375q-0.19140625,0.095703125-0.5537109375,0.314453125t-0.5400390625,0.314453125q-0.02734375,0.02734375-0.109375,0.0751953125t-0.109375,0.0615234375q0.0546875,0.19140625,0.0546875,0.2734375l0,0.02734375z M29.3909765625,23.4765625l-0.02734375,0l0.02734375,0q-0.0546875,0.02734375-0.13671875,0.02734375q-0.041015625,0-0.109375-0.02734375t-0.109375-0.02734375q-0.095703125,0-0.150390625,0.0546875q-0.095703125,0.08203125-0.2939453125,0.2392578125t-0.2939453125,0.2392578125q-0.6015625,0.560546875-1.052734375,0.888671875q-0.123046875,0.095703125-0.8544921875,0.7314453125t-1.1142578125,0.9775390625q3.28125-2.296875,4.908203125-3.185546875q-0.013671875,0-0.150390625,0.041015625t-0.1640625,0.041015625l-0.1640625,0l-0.314453125,0z M26.3694921875,23.33984375q-0.02734375,0-0.02734375,0.02734375q0.02734375,0,0.02734375-0.02734375q-0.013671875,0-0.0478515625,0.013671875t-0.0615234375,0.013671875l-0.109375,0q-0.08203125,0-0.13671875,0.08203125q-0.0546875,0.095703125-0.1708984375,0.2802734375t-0.1708984375,0.2802734375q-0.095703125,0.150390625-0.2802734375,0.4580078125t-0.2802734375,0.4580078125q0.68359375-0.328125,2.666015625-1.55859375q-0.068359375-0.013671875-0.232421875,0.0341796875t-0.21875,0.0478515625q-0.08203125,0-0.109375-0.02734375q-0.0546875-0.02734375-0.205078125-0.02734375q-0.0546875,0-0.1708984375,0.013671875t-0.1845703125,0.013671875q-0.1640625,0-0.287109375-0.08203125z M31.5511328125,26.333984375q0-0.013671875,0.24609375-0.1435546875t0.5263671875-0.2734375t0.3212890625-0.1708984375q1.052734375-0.57421875,1.544921875-0.875q0.08203125-0.041015625,0.4375-0.2529296875t0.4990234375-0.30078125t0.4169921875-0.2734375t0.478515625-0.341796875t0.396484375-0.3349609375q-0.068359375-0.013671875-0.1640625,0.0068359375t-0.13671875,0.0205078125q-0.109375,0-0.1640625-0.0546875q-0.21875,0.041015625-0.68359375,0.3828125q-0.68359375,0.451171875-1.61328125,1.09375q-0.7109375,0.51953125-1.435546875,0.984375q-0.0546875,0.041015625-0.1845703125,0.1162109375t-0.1982421875,0.123046875t-0.150390625,0.1298828125t-0.13671875,0.1640625z M31.7151953125,29.916015625l0-0.02734375l0,0.02734375q0-0.02734375,0.587890625-0.423828125q-0.1640625,0.0546875-0.21875,0.0546875q-0.314453125,0-0.314453125-0.2734375q0-0.19140625,0.150390625-0.341796875q-0.041015625,0.013671875-0.08203125,0.0205078125t-0.0615234375,0.0068359375l-0.041015625,0t-0.0341796875,0.0068359375t-0.02734375,0.0205078125t-0.0205078125,0.041015625t-0.0205078125,0.068359375q0,0.02734375,0.013671875,0.13671875t0.013671875,0.150390625q0.0546875,0.21875,0.0546875,0.423828125l0,0.109375z M31.5511328125,31.201171875q0-0.08203125,1.517578125-1.09375q0.669921875-0.505859375,1.3125-1.06640625q0.0546875-0.0546875,0.2119140625-0.1845703125t0.2529296875-0.2119140625t0.205078125-0.2119140625t0.1640625-0.2529296875q-0.19140625,0.041015625-0.916015625,0.478515625q-0.505859375,0.314453125-1.517578125,0.998046875q-0.9296875,0.57421875-1.1484375,0.875q-0.02734375,0.08203125-0.041015625,0.1982421875t-0.0205078125,0.259765625t-0.0205078125,0.2119140625z M31.5784765625,35.685546875l0,0.08203125q0.21875-0.150390625,0.62890625-0.451171875t0.62890625-0.451171875q-0.150390625,0.068359375-0.5263671875,0.2529296875t-0.5947265625,0.2802734375q-0.13671875,0.068359375-0.13671875,0.1640625l0,0.123046875z M30.0335546875,39.71875q-0.109375,0.150390625-0.3349609375,0.2734375t-0.3076171875,0.21875q-0.478515625,0.4921875-0.998046875,0.95703125q0.41015625-0.123046875,0.7998046875-0.3349609375t0.970703125-0.5947265625t0.7177734375-0.46484375q-0.02734375,0.02734375-0.109375,0.02734375q-0.068359375,0-0.1845703125-0.0615234375t-0.1845703125-0.0478515625q-0.0546875,0.0546875-0.19140625,0.0546875q-0.123046875,0-0.177734375-0.02734375z M29.3909765625,41.38671875l0.0546875-0.02734375l-0.0546875,0.02734375q0.287109375-0.150390625,1.203125-0.779296875q-0.259765625,0.13671875-0.751953125,0.4375t-0.751953125,0.4375q0.0546875,0,0.150390625-0.0478515625t0.150390625-0.0478515625z M28.1605078125,41.00390625q0.123046875-0.109375,0.3623046875-0.3349609375t0.3623046875-0.3349609375q-0.3828125,0.232421875-0.669921875,0.3828125q-0.0546875,0.02734375-0.0546875,0.150390625l0,0.109375l0,0.02734375z M28.3929296875,41.455078125l0.02734375,0l-0.0546875,0l0.02734375,0l0.109375,0q0.123046875,0,0.30078125-0.177734375l-0.615234375,0.205078125l0.02734375,0q0.02734375,0,0.0888671875-0.013671875t0.0888671875-0.013671875z M30.4573828125,41.509765625q0.041015625,0,0.1298828125-0.068359375t0.205078125-0.1708984375t0.1435546875-0.1298828125q0.533203125-0.314453125,0.806640625-0.533203125q0.287109375-0.177734375,0.84765625-0.533203125t0.833984375-0.533203125q0.109375-0.08203125,0.7724609375-0.5400390625t0.9912109375-0.7177734375q0.478515625-0.35546875,0.478515625-0.423828125l0-0.41015625q-0.109375,0.02734375-0.2734375,0.13671875q0.08203125,0.041015625,0.08203125,0.08203125q0,0.123046875-0.30078125,0.3076171875t-0.4375,0.2255859375q-0.24609375,0.13671875-0.7314453125,0.4169921875t-0.7177734375,0.4169921875q-0.65625,0.3828125-1.7978515625,1.2373046875t-1.6474609375,1.1826171875q0.1640625,0.0546875,0.314453125,0.0546875l0.21875,0l0.08203125,0z M32.0843359375,41.38671875q0.02734375,0,0.095703125-0.0478515625t0.068359375-0.0615234375q-0.02734375,0.02734375-0.1640625,0.109375q0.123046875,0.041015625,0.21875,0.041015625q0.21875,0,0.478515625-0.1298828125t0.4306640625-0.259765625t0.451171875-0.3759765625t0.3486328125-0.30078125q0.1640625-0.109375,1.3125-0.984375q0.013671875-0.013671875,0.177734375-0.1162109375t0.2666015625-0.19140625t0.0888671875-0.1435546875q-0.2734375,0.109375-0.73828125,0.4853515625t-0.62890625,0.4716796875q-0.833984375,0.57421875-2.40625,1.50390625z M34.1898046875,41.537109375q0.041015625-0.013671875,0.095703125-0.0546875t0.1025390625-0.068359375t0.1025390625-0.02734375l0.13671875,0.068359375q0.068359375-0.068359375,0.2119140625-0.2255859375t0.2119140625-0.2255859375q0.21875-0.21875,0.62890625-0.669921875t0.62890625-0.68359375q-0.08203125-0.013671875-0.205078125,0.0205078125t-0.19140625,0.0751953125t-0.21875,0.13671875t-0.1640625,0.109375q-0.451171875,0.24609375-0.79296875,0.478515625q-1.271484375,0.779296875-1.640625,1.01171875q0.02734375,0.013671875,0.46484375,0.08203125l0.095703125,0l0.21875-0.0546875l0.0546875,0q0.02734375,0,0.08203125,0.02734375t0.08203125,0.02734375q0.013671875,0,0.0478515625-0.013671875t0.0478515625-0.013671875z M36.8148046875,41.38671875l-0.02734375,0l0.02734375,0l0.13671875,0q0.08203125,0,0.177734375-0.1640625q0.013671875-0.013671875,0.1162109375-0.1435546875t0.1572265625-0.2119140625q0.6015625-0.779296875,0.615234375-0.79296875q-0.3828125,0.24609375-1.1826171875,0.7109375t-1.1962890625,0.697265625q0.041015625-0.013671875,0.2119140625-0.0546875t0.2666015625-0.041015625l0.08203125,0q0.0546875,0,0.1162109375,0.0205078125t0.1025390625,0.0205078125l0.095703125,0q0.041015625-0.041015625,0.21875-0.041015625l0.08203125,0z M38.8655859375,41.11328125l0.02734375,0l0-0.02734375l-0.02734375,0.02734375l0.02734375,0.0546875q0,0.041015625-0.0341796875,0.1162109375t-0.0341796875,0.1025390625q0.041015625-0.013671875,0.0751953125-0.0341796875t0.0478515625-0.0615234375t0.0205078125-0.068359375t0.0205078125-0.095703125t0.013671875-0.095703125q-0.02734375,0.013671875-0.068359375,0.041015625t-0.068359375,0.041015625z M37.4847265625,42.15234375l0.02734375,0l-0.02734375,0l-0.08203125,0.0546875l0.19140625-0.109375q-0.02734375,0-0.109375,0.0546875z M38.8929296875,39.9375l0.02734375,0l-0.02734375,0q-0.41015625-0.041015625-0.7109375,0.369140625q-0.068359375,0.08203125-0.3828125,0.4990234375t-0.478515625,0.6494140625q0.109375,0.02734375,0.24609375-0.041015625t0.30078125-0.1845703125t0.232421875-0.1435546875q0.369140625-0.2734375,0.697265625-0.423828125q0.0546875-0.02734375,0.123046875-0.0546875t0.08203125-0.0478515625t0.0341796875-0.0615234375t0.0205078125-0.13671875q-0.02734375-0.109375-0.02734375-0.423828125l-0.13671875,0z M37.2659765625,39.828125l-0.0546875,0q-0.341796875,0-0.505859375-0.109375q-0.177734375,0.041015625-0.560546875,0.4921875q-0.02734375,0.02734375-0.341796875,0.35546875t-0.5673828125,0.615234375t-0.2119140625,0.328125q0.46484375-0.232421875,2.720703125-1.572265625q-0.0546875-0.041015625-0.13671875-0.0615234375t-0.19140625-0.02734375t-0.150390625-0.0205078125z M34.8323828125,40.07421875q0.1640625-0.08203125,0.451171875-0.2529296875t0.4375-0.2529296875q0.041015625-0.02734375,0.0751953125-0.0478515625t0.0546875-0.0341796875t0.0478515625-0.02734375t0.0341796875-0.0205078125t0.013671875-0.02734375t0.0068359375-0.0341796875l0-0.109375q-0.19140625,0.13671875-0.5673828125,0.41015625t-0.5537109375,0.396484375z M36.2542578125,35.42578125l0.02734375-0.02734375q-0.02734375,0-0.02734375,0.02734375q0.013671875-0.013671875,0.0546875-0.041015625t0.0546875-0.041015625q-0.109375,0-0.109375,0.08203125z M35.4476171875,35.53515625l-0.177734375,0.123046875q0.041015625-0.041015625,0.177734375-0.123046875q0.21875-0.150390625,0.21875-0.724609375q0-0.177734375-0.013671875-0.4375t-0.013671875-0.341796875q-1.927734375,1.544921875-2.748046875,2.1875q0.62890625-0.41015625,1.626953125-1.01171875q0.4375-0.314453125,0.697265625-0.369140625l0.0546875,0q0.150390625,0,0.150390625,0.13671875q0,0.095703125-0.0546875,0.150390625q-0.08203125,0.068359375-0.2529296875,0.205078125t-0.2529296875,0.205078125q-2.064453125,1.791015625-2.802734375,2.392578125q0.65625-0.369140625,1.7841796875-1.23046875t1.6064453125-1.162109375z M38.3050390625,25.349609375l0.02734375,0l-0.02734375,0q0.13671875,0.02734375,0.3623046875-0.1435546875t0.4716796875-0.423828125t0.314453125-0.3076171875q0.806640625-0.65625,1.28515625-1.107421875q-0.0546875-0.02734375-0.205078125-0.02734375t-0.3212890625,0.0615234375t-0.24609375,0.095703125t-0.314453125,0.19140625t-0.2666015625,0.1708984375q-0.615234375,0.396484375-1.791015625,1.244140625q0.13671875-0.013671875,0.369140625,0.109375t0.341796875,0.13671875z M39.0296484375,25.80078125q0.259765625,0.21875,0.451171875,0.505859375q0.79296875-1.025390625,2.734375-2.666015625q-0.1640625,0.068359375-0.95703125,0.6083984375t-1.50390625,1.0458984375z M40.0960546875,27.482421875q-0.08203125,0-0.08203125,0.109375q0,0.095703125,0.095703125,0.30078125t0.095703125,0.232421875q0.177734375-0.13671875,0.5126953125-0.423828125t0.4990234375-0.423828125q-0.62890625,0.423828125-0.84765625,0.478515625l-0.08203125,0q-0.24609375,0-0.24609375-0.13671875q0-0.08203125,0.0546875-0.13671875z M40.2601171875,28.48046875l0.0546875-0.02734375l-0.0546875,0.02734375q0.0546875-0.041015625,0.1708984375-0.123046875t0.1708984375-0.123046875q-0.013671875,0.013671875-0.1162109375,0.0615234375t-0.1640625,0.0888671875t-0.0615234375,0.095703125z M40.4241796875,29.24609375l0,0.0546875q1.12109375-0.84765625,1.572265625-1.353515625q-0.21875,0.123046875-0.6357421875,0.396484375t-0.6220703125,0.396484375q-0.041015625,0.02734375-0.1162109375,0.068359375t-0.123046875,0.0615234375t-0.08203125,0.068359375t-0.0478515625,0.1025390625q0.013671875,0.02734375,0.02734375,0.1025390625t0.02734375,0.1025390625z"/><path fill="#" d=""/></svg>
